<svg width="512" height="512" version="1.1" xmlns="http://www.w3.org/2000/svg" viewBox="0 0 512 512"><path fill="#000000" d="M 273.5 57 L 285.5 57 L 295.5 59 L 349.5 80 Q 372.6 89.9 388 107.5 Q 401.3 120.7 408 140.5 L 412 156.5 L 412 174.5 L 413 175.5 L 413 177.5 L 413 191.5 L 412 193.5 L 413 194.5 L 413 217.5 L 412 220.5 Q 414.5 222 413 227.5 L 412 229.5 L 413 230.5 L 413 276.5 L 412 280.5 L 413 281.5 L 413 304.5 L 412 306.5 L 413 307.5 L 413 326.5 L 412 331.5 L 413 332.5 L 413 345.5 L 412 346.5 L 412 358.5 L 412 360.5 L 412 368.5 L 409 378.5 Q 403.8 389.3 395.5 397 Q 387.7 404.2 376.5 408 L 351.5 413 L 334.5 418 L 330.5 418 L 306.5 425 L 264.5 434 L 260.5 436 L 247.5 438 L 194.5 452 L 180.5 455 L 168.5 455 L 153.5 448 L 113.5 420 L 106 412.5 L 100 398.5 L 99 370.5 L 100 366.5 L 99 365.5 L 99 198.5 L 103 175.5 L 107 163.5 L 117 144.5 Q 133.8 118.3 156.5 98 Q 171.5 83 193.5 75 L 235.5 66 L 260.5 59 L 272.5 58 L 273.5 57 Z M 276 63 L 275 64 L 263 65 L 225 75 L 199 80 Q 178 87 164 100 Q 131 127 112 169 L 106 192 L 106 244 L 105 245 L 105 254 L 106 255 L 106 269 L 105 270 L 105 282 L 106 283 L 106 295 L 105 296 L 105 308 L 106 309 L 106 320 L 105 321 L 105 333 L 106 334 L 106 346 L 105 347 L 105 358 L 106 359 L 106 371 L 105 372 L 106 397 L 111 409 L 123 419 L 147 435 L 148 436 L 147 433 L 147 219 L 152 197 L 163 173 L 180 148 L 198 126 L 200 126 L 217 110 L 237 99 L 272 90 L 281 89 L 293 85 L 298 85 L 311 81 L 315 81 L 319 79 L 326 79 L 323 76 L 294 65 L 276 63 Z M 327 84 L 294 91 L 273 97 L 264 98 L 256 101 L 247 102 Q 227 108 214 120 Q 190 142 172 170 L 159 196 L 153 221 L 153 431 L 156 440 Q 161 447 171 449 L 185 448 L 189 446 L 193 446 L 231 436 L 235 436 L 255 430 L 259 430 L 322 414 L 330 413 L 338 410 L 342 410 L 375 402 L 390 394 L 401 381 L 404 374 L 406 367 L 406 346 L 407 345 L 407 335 L 406 334 L 406 321 L 407 320 L 407 309 L 406 308 L 406 295 L 407 294 L 407 283 L 406 282 L 406 269 L 407 268 L 407 257 L 406 256 L 406 244 L 407 243 L 407 231 L 406 230 L 406 219 L 407 218 L 407 206 L 406 205 L 406 193 L 407 192 L 406 158 L 403 146 Q 398 128 387 116 Q 374 99 355 89 Q 343 84 327 84 Z " /><path fill="#000000" d="M 320.5 94 L 335.5 95 L 345.5 98 L 355.5 103 Q 372.2 112.8 384 127.5 Q 392 138 397 151.5 L 401 171.5 L 401 362.5 Q 398 380.5 385.5 389 L 370.5 395 L 341.5 401 L 307.5 410 L 303.5 410 L 299.5 412 L 295.5 412 L 291.5 414 L 270.5 418 L 258.5 422 L 216.5 431 L 204.5 435 L 200.5 435 L 187.5 439 L 176.5 439 Q 168.8 437.1 165 431.5 L 161 420.5 L 161 230.5 L 162 229.5 L 162 220.5 L 165 206.5 L 179 175.5 Q 194.9 148.9 217.5 129 Q 229.2 118.7 244.5 112 L 265.5 106 L 274.5 105 L 299.5 98 L 320.5 94 Z M 317 98 L 247 115 Q 232 121 221 131 Q 201 148 187 170 Q 175 187 168 210 L 165 225 L 165 305 L 164 306 L 165 308 L 165 320 L 164 321 L 165 325 L 165 346 L 165 348 Q 167 353 164 355 L 165 359 L 165 372 L 164 373 L 165 375 L 164 377 Q 162 383 165 385 L 165 397 L 164 398 L 165 399 L 165 424 L 168 430 Q 172 435 180 436 L 190 435 L 194 433 L 206 431 L 231 424 L 235 424 L 243 421 L 264 417 L 268 415 L 293 410 L 310 405 L 314 405 L 331 400 L 335 400 L 360 393 L 364 393 L 376 390 L 384 386 Q 394 379 397 365 L 397 209 L 398 208 L 397 207 L 397 168 L 396 163 Q 392 142 380 129 Q 366 111 344 101 L 333 98 L 317 98 Z " /><path fill="#000000" d="M 317.5 185 L 321 187.5 L 334 211.5 L 336 223.5 L 334 232.5 L 326.5 243 L 319.5 247 L 312.5 247 L 310 246 L 301 228.5 L 300 222.5 Q 306.7 201.7 317.5 185 Z M 318 191 L 304 221 L 305 227 L 313 242 L 314 243 L 320 243 L 319 241 L 328 222 Q 327 218 331 219 L 332 220 L 328 208 L 318 191 Z M 332 225 L 331 228 L 332 228 L 332 225 Z " /><path fill="#000000" d="M 276 192 L 280 192 L 280 193.5 L 306 240.5 L 310 253.5 L 310 271.5 Q 306.1 291.1 293.5 302 Q 285.5 310 269.5 310 Q 257.9 307.1 252 298.5 L 248 288.5 L 255 282.5 L 263 266.5 L 264 254.5 L 261 243.5 L 257 236.5 L 257 231.5 L 276 192 Z M 278 198 L 261 232 L 261 236 L 265 243 L 267 251 L 267 264 L 265 272 Q 261 283 252 290 L 256 297 Q 261 304 271 306 Q 283 307 290 301 L 300 290 L 305 279 L 307 268 Q 307 252 302 242 L 278 198 Z " /><path fill="#000000" d="M 241.5 215 L 244 216.5 L 260 246.5 Q 262.6 254.4 261 266.5 Q 258 278 249.5 284 L 242.5 287 L 237.5 287 Q 230.1 284.9 226 279.5 L 222 271.5 L 222 255.5 L 226 244.5 L 239 217.5 L 241.5 215 Z M 242 221 L 227 252 L 225 260 Q 224 272 230 278 Q 233 282 239 283 Q 244 284 246 282 L 243 281 L 243 278 Q 250 270 253 258 L 256 255 Q 259 257 257 264 L 258 264 L 258 255 L 256 248 L 242 221 Z M 251 277 L 249 279 L 251 279 L 251 277 Z " /><path fill="#000000" d="M 302.5 258 L 305 259.5 Q 305.1 287.6 288.5 299 L 280.5 302 Q 277.8 300.8 280 299.5 L 291 282.5 L 302.5 258 Z M 301 270 L 294 285 L 287 295 L 289 295 Q 298 287 301 273 L 301 270 Z " /></svg>