<svg width="512" height="512" version="1.1" xmlns="http://www.w3.org/2000/svg" viewBox="0 0 512 512"><path fill="#000000" d="M 322.5 34 L 331.5 34 L 340.5 38 L 346 43.5 L 348 49.5 L 348 87.5 L 349.5 89 L 356.5 91 L 395.5 109 L 414 119.5 L 417 127.5 L 417 346.5 L 413 358.5 L 407.5 364 L 224.5 449 L 216.5 452 L 212.5 452 L 197.5 447 L 165.5 429 L 122.5 450 L 113.5 450 L 99 441.5 L 95 432.5 L 95 149.5 Q 97.6 135.6 107.5 129 L 322.5 34 Z M 324 38 L 110 133 L 105 139 L 109 141 L 120 132 L 330 39 L 324 38 Z M 334 41 L 120 136 L 112 144 L 108 156 L 108 437 L 110 442 L 116 446 L 121 446 L 161 427 L 157 422 L 157 403 L 151 399 L 149 394 L 149 192 L 150 190 L 156 186 L 156 183 L 160 174 L 169 167 L 323 97 L 313 86 L 315 78 L 321 73 L 326 74 L 338 87 L 338 89 L 344 88 L 344 52 L 342 46 Q 340 41 334 41 Z M 321 77 L 317 81 L 317 86 L 327 95 L 330 91 L 329 86 L 321 77 Z M 333 86 L 332 92 L 335 91 L 333 86 Z M 343 92 L 167 173 L 165 176 L 172 178 L 199 193 L 208 187 L 383 109 L 348 92 L 343 92 Z M 386 111 L 200 195 L 197 201 L 209 207 Q 211 208 210 206 Q 215 199 224 196 L 400 117 L 389 111 L 386 111 Z M 405 119 L 218 203 L 214 208 L 238 227 L 254 218 L 379 162 L 384 163 L 409 122 L 405 119 Z M 410 124 L 386 166 L 387 168 L 387 333 L 386 337 L 411 353 L 412 351 L 412 125 L 410 124 Z M 102 141 L 100 148 L 100 359 L 100 361 L 100 421 L 99 422 L 100 423 Q 99 431 101 437 L 106 441 L 105 439 L 105 153 L 108 144 L 102 141 Z M 381 166 L 381 333 L 379 336 L 347 352 L 241 400 L 240 402 L 248 400 L 381 338 L 383 335 L 383 310 L 384 309 L 383 307 L 383 284 L 383 282 L 383 266 L 384 265 L 383 262 L 384 259 L 383 256 L 383 233 L 383 231 L 383 208 L 384 207 L 383 205 L 383 182 L 383 180 L 383 167 L 381 166 Z M 378 167 L 353 179 L 350 180 L 350 215 Q 365 211 378 203 L 378 167 Z M 164 177 L 161 183 L 193 200 L 197 195 L 164 177 Z M 347 181 L 243 228 L 239 233 L 240 266 L 348 217 L 348 182 L 347 181 Z M 160 186 L 160 195 L 155 193 L 154 395 L 160 398 L 161 400 L 161 420 L 162 422 L 190 437 L 191 438 L 191 293 L 190 292 L 190 283 L 191 282 L 191 269 L 190 268 L 191 243 L 191 241 L 190 236 L 191 235 L 191 205 L 192 203 L 160 186 Z M 197 203 L 194 208 L 194 437 L 195 440 Q 198 444 206 445 L 207 446 L 206 444 L 206 215 L 208 210 L 197 203 Z M 377 206 L 352 218 L 350 219 L 350 295 L 350 297 L 350 329 L 351 330 L 350 333 L 351 346 L 375 335 L 378 330 L 378 207 L 377 206 Z M 211 210 L 209 219 L 209 443 L 212 447 L 237 406 L 235 403 L 235 232 L 236 230 L 211 210 Z M 348 219 L 239 268 L 240 397 L 339 352 L 348 347 L 348 219 Z M 383 340 L 341 361 L 278 389 L 250 403 L 241 406 L 216 447 L 394 366 L 406 360 L 409 357 L 386 340 L 383 340 Z " /><path fill="#000000" d="M 331.5 48 Q 338 47 339 51.5 L 340 57.5 Q 338.8 63.3 334.5 66 L 328.5 67 L 325 64.5 Q 323.2 52.7 329.5 49 L 331.5 48 Z M 332 52 L 328 57 Q 326 62 330 64 L 333 63 L 336 58 Q 339 50 332 52 Z " /><path fill="#000000" d="M 246.5 89 Q 252.9 88.6 255 92.5 Q 257.9 96.1 257 103.5 Q 254.5 112.5 247.5 117 L 242.5 118 L 238.5 116 L 213.5 128 L 207.5 128 Q 202.5 125.5 204 116.5 L 209.5 109 L 236.5 97 L 246.5 89 Z M 251 93 L 251 98 L 248 108 L 243 114 L 248 113 L 253 105 Q 255 96 251 93 Z M 245 94 L 239 100 L 210 113 L 207 121 L 232 110 L 241 111 Q 246 108 248 101 L 247 96 Q 248 93 245 94 Z M 232 113 L 211 123 Q 208 122 209 125 L 212 125 L 235 114 L 232 113 Z " /><path fill="#000000" d="M 120.5 142 Q 126.8 140.8 128 144.5 L 129 151.5 Q 127.8 157.3 123.5 160 L 117.5 161 L 114 158.5 L 113 152.5 Q 113.9 145.9 118.5 143 L 120.5 142 Z M 123 145 L 121 146 Q 116 148 117 157 L 121 158 Q 126 156 125 147 L 123 145 Z " /><path fill="#000000" d="M 132.5 157 Q 139 156 140 160.5 Q 141.2 168.2 138 171.5 L 127 190.5 L 122.5 195 Q 115.3 196.3 114 191.5 L 114 185.5 L 130.5 158 L 132.5 157 Z M 134 161 L 133 167 L 118 191 Q 117 193 121 192 L 126 186 L 134 172 L 137 166 L 137 163 L 134 161 Z " /><path fill="#000000" d="M 372.5 171 L 376 171.5 L 376 182.5 L 373.5 186 L 367.5 189 L 363 189 L 363 177.5 L 365.5 174 L 372.5 171 Z M 371 174 L 368 177 Q 369 181 367 183 L 369 186 L 372 184 L 371 174 Z " /><path fill="#000000" d="M 369.5 179 L 371 182.5 L 369 183.5 L 369.5 179 Z " /><path fill="#000000" d="M 303.5 208 L 308 211 Q 309.6 213.1 309 218.5 L 303.5 229 Q 300.9 229.8 302 226.5 L 297 222.5 Q 298.1 213.1 303.5 208 Z " /><path fill="#000000" d="M 340.5 225 L 344 226.5 L 341.5 228 Q 340.3 225.7 339 228.5 Q 337.3 234.3 341 233 L 342.5 230 Q 344.8 229.3 344 231.5 L 340.5 236 Q 336.1 237.5 337 234.5 L 336 231 Q 332.2 232.5 333 229.5 L 334 227 Q 336.7 225.9 336 228.5 L 337 228.5 L 338.5 226 L 340.5 225 Z " /><path fill="#000000" d="M 365.5 225 L 374 230.5 L 372.5 233 L 364.5 229 L 356.5 240 Q 354.3 240.8 355 238.5 L 363.5 226 L 365.5 225 Z " /><path fill="#000000" d="M 338.5 238 Q 341.1 237.2 340 240.5 L 339 244 L 326 250.5 L 326.5 263 L 339.5 257 L 344 259.5 L 344 275.5 L 341.5 279 L 338.5 281 L 326.5 287 L 322 287 L 326.5 281 L 337.5 276 L 339 276.5 L 338.5 262 L 327.5 268 L 324 268 L 323.5 266 Q 322.3 268.3 321 265.5 L 321 251.5 L 322 247.5 L 324.5 245 L 338.5 238 Z " /><path fill="#000000" d="M 310.5 251 L 311.5 253 L 312 251 L 315 251.5 L 315 268.5 L 312.5 270 L 310 269 L 310 257.5 L 308.5 257 L 296 262.5 L 298 264.5 L 298 274.5 L 294.5 279 L 293 278.5 L 293 263.5 L 294 260.5 L 295.5 258 L 310.5 251 Z M 311 254 L 310 257 L 311 257 L 311 254 Z " /><path fill="#000000" d="M 284.5 263 L 287 264.5 L 287 281.5 L 285.5 283 L 284 283.5 Q 286.5 285 283 286.5 Q 283.8 288.8 281.5 288 L 268 294.5 L 269 295.5 L 269.5 308 L 281.5 302 Q 284 303.2 283 307 L 267.5 314 L 265 313 L 264 306.5 L 265 305.5 L 265 294 L 268 293.5 L 267 291.5 Q 272.8 284.3 284 282.5 L 282 282 L 282 270.5 L 279.5 270 Q 274.2 275 265 275 L 268.5 270 L 284.5 263 Z " /><path fill="#000000" d="M 128.5 264 Q 135.8 262.8 137 267.5 L 138 273.5 L 137 274.5 L 137 296.5 Q 142.6 299.9 141 310.5 L 135 322 L 130.5 325 L 122.5 326 L 118 322.5 Q 115.1 318.9 116 311.5 L 120 301.5 L 119 298.5 L 120 297.5 L 120 281.5 L 119 276.5 L 123 267 L 128.5 264 Z M 133 268 L 132 295 L 134 295 L 134 270 L 133 268 Z M 128 269 L 123 275 L 123 306 L 119 315 L 120 319 L 125 318 Q 130 315 132 308 L 132 300 L 129 296 Q 130 291 128 290 L 129 286 L 128 269 Z M 136 300 Q 136 310 132 316 L 126 321 Q 123 320 124 323 L 131 321 Q 136 316 138 309 Q 139 302 136 300 Z " /><path fill="#000000" d="M 372 270 L 375 271.5 L 364.5 286 L 360.5 285 L 354 280.5 L 357.5 278 L 362.5 282 L 364.5 282 Q 370.6 277.3 372 270 Z " /><path fill="#000000" d="M 313 272 L 315 272.5 L 315 290.5 L 295.5 301 L 293 299.5 L 293 297.5 L 293 281.5 L 294.5 280 L 298 283.5 L 298 294 L 309.5 289 L 311 289.5 L 310 282.5 Q 312.5 281 311 275.5 L 313 272 Z " /><path fill="#000000" d="M 319.5 284 L 320 290 Q 314.4 292.2 316 286.5 L 319.5 284 Z " /><path fill="#000000" d="M 119.5 386 L 125.5 386 L 139 399.5 L 140 405.5 L 133.5 414 L 128.5 414 L 115 401.5 L 113 395.5 L 114 391.5 L 117.5 387 L 119.5 386 Z M 122 389 L 120 390 L 117 394 L 118 400 L 123 403 L 124 406 L 128 407 L 131 402 L 131 399 L 122 389 Z M 135 399 L 132 407 L 129 410 L 131 411 L 135 409 L 137 404 L 135 399 Z " /><path fill="#000000" d="M 120.5 421 Q 126.3 420.2 128 423.5 L 129 430.5 Q 127.8 436.3 123.5 439 L 117.5 440 L 114 437.5 L 113 430.5 Q 114.3 424.8 118.5 422 L 120.5 421 Z M 123 424 L 121 425 L 117 430 Q 115 435 119 437 L 122 436 Q 126 434 125 426 L 123 424 Z " /></svg>