<svg xmlns="http://www.w3.org/2000/svg" width="512" height="512" viewBox="0 0 512 512"><path fill="#000000" d="M260 30h34v1h-34zM246 31h56v1h-56zM242 32h65v1h-65zM237 33h76v1h-76zM233 34h84v1h-84zM228 35h29v1h-29zM294 35h27v1h-27zM224 36h23v1h-23zM303 36h21v1h-21zM219 37h22v1h-22zM307 37h21v1h-21zM218 38h18v1h-18zM312 38h19v1h-19zM213 39h19v1h-19zM317 39h17v1h-17zM212 40h16v1h-16zM320 40h17v1h-17zM209 41h18v1h-18zM323 41h17v1h-17zM203 42h24v1h-24zM327 42h16v1h-16zM197 43h21v1h-21zM222 43h7v1h-7zM330 43h15v1h-15zM192 44h23v1h-23zM222 44h7v1h-7zM333 44h15v1h-15zM187 45h26v1h-26zM222 45h7v1h-7zM336 45h14v1h-14zM183 46h27v1h-27zM339 46h12v1h-12zM179 47h23v1h-23zM341 47h14v1h-14zM176 48h20v1h-20zM344 48h12v1h-12zM173 49h18v1h-18zM346 49h12v1h-12zM171 50h16v1h-16zM348 50h12v1h-12zM167 51h16v1h-16zM350 51h13v1h-13zM165 52h14v1h-14zM352 52h13v1h-13zM162 53h14v1h-14zM354 53h12v1h-12zM160 54h13v1h-13zM356 54h11v1h-11zM157 55h13v1h-13zM358 55h12v1h-12zM155 56h13v1h-13zM360 56h10v1h-10zM152 57h13v1h-13zM362 57h11v1h-11zM151 58h12v1h-12zM364 58h9v1h-9zM148 59h12v1h-12zM365 59h10v1h-10zM146 60h12v1h-12zM367 60h10v1h-10zM145 61h11v1h-11zM368 61h10v1h-10zM143 62h11v1h-11zM369 62h10v1h-10zM141 63h11v1h-11zM369 63h12v1h-12zM140 64h10v1h-10zM369 64h14v1h-14zM137 65h11v1h-11zM369 65h3v1h-3zM375 65h9v1h-9zM136 66h10v1h-10zM369 66h3v1h-3zM376 66h9v1h-9zM134 67h10v1h-10zM377 67h9v1h-9zM133 68h9v1h-9zM309 68h3v1h-3zM379 68h8v1h-8zM132 69h9v1h-9zM309 69h3v1h-3zM379 69h10v1h-10zM130 70h9v1h-9zM309 70h3v1h-3zM379 70h12v1h-12zM128 71h9v1h-9zM378 71h14v1h-14zM127 72h9v1h-9zM316 72h3v1h-3zM378 72h3v1h-3zM384 72h9v1h-9zM126 73h8v1h-8zM316 73h3v1h-3zM378 73h3v1h-3zM386 73h9v1h-9zM124 74h9v1h-9zM316 74h3v1h-3zM387 74h9v1h-9zM123 75h8v1h-8zM316 75h8v1h-8zM388 75h9v1h-9zM121 76h9v1h-9zM321 76h4v1h-4zM390 76h8v1h-8zM120 77h8v1h-8zM321 77h4v1h-4zM391 77h8v1h-8zM119 78h8v1h-8zM321 78h4v1h-4zM392 78h7v1h-7zM118 79h8v1h-8zM326 79h3v1h-3zM393 79h8v1h-8zM116 80h8v1h-8zM326 80h4v1h-4zM394 80h8v1h-8zM115 81h8v1h-8zM326 81h4v1h-4zM395 81h8v1h-8zM114 82h8v1h-8zM327 82h6v1h-6zM396 82h8v1h-8zM113 83h7v1h-7zM330 83h4v1h-4zM397 83h8v1h-8zM112 84h7v1h-7zM330 84h4v1h-4zM398 84h8v1h-8zM109 85h9v1h-9zM330 85h4v1h-4zM399 85h8v1h-8zM109 86h8v1h-8zM400 86h8v1h-8zM108 87h8v1h-8zM335 87h3v1h-3zM401 87h7v1h-7zM107 88h7v1h-7zM335 88h3v1h-3zM402 88h8v1h-8zM106 89h7v1h-7zM335 89h3v1h-3zM344 89h3v1h-3zM403 89h7v1h-7zM104 90h8v1h-8zM195 90h7v1h-7zM338 90h9v1h-9zM404 90h8v1h-8zM104 91h7v1h-7zM195 91h7v1h-7zM338 91h9v1h-9zM405 91h8v1h-8zM102 92h8v1h-8zM195 92h7v1h-7zM215 92h3v1h-3zM338 92h8v1h-8zM406 92h8v1h-8zM101 93h8v1h-8zM177 93h3v1h-3zM195 93h14v1h-14zM213 93h13v1h-13zM341 93h5v1h-5zM407 93h8v1h-8zM101 94h7v1h-7zM175 94h5v1h-5zM192 94h17v1h-17zM213 94h19v1h-19zM341 94h5v1h-5zM408 94h8v1h-8zM99 95h8v1h-8zM171 95h9v1h-9zM186 95h23v1h-23zM213 95h19v1h-19zM236 95h3v1h-3zM342 95h6v1h-6zM409 95h8v1h-8zM98 96h8v1h-8zM169 96h29v1h-29zM226 96h6v1h-6zM236 96h6v1h-6zM342 96h7v1h-7zM352 96h3v1h-3zM409 96h9v1h-9zM98 97h7v1h-7zM164 97h29v1h-29zM236 97h10v1h-10zM344 97h5v1h-5zM352 97h3v1h-3zM409 97h10v1h-10zM97 98h7v1h-7zM162 98h24v1h-24zM239 98h10v1h-10zM346 98h9v1h-9zM408 98h12v1h-12zM96 99h7v1h-7zM160 99h21v1h-21zM243 99h6v1h-6zM346 99h6v1h-6zM408 99h13v1h-13zM94 100h8v1h-8zM157 100h22v1h-22zM246 100h9v1h-9zM348 100h4v1h-4zM408 100h13v1h-13zM94 101h7v1h-7zM155 101h20v1h-20zM251 101h4v1h-4zM349 101h3v1h-3zM410 101h12v1h-12zM93 102h7v1h-7zM154 102h19v1h-19zM251 102h4v1h-4zM349 102h6v1h-6zM410 102h13v1h-13zM92 103h7v1h-7zM151 103h19v1h-19zM350 103h5v1h-5zM411 103h12v1h-12zM92 104h6v1h-6zM151 104h16v1h-16zM350 104h6v1h-6zM413 104h11v1h-11zM90 105h7v1h-7zM147 105h19v1h-19zM352 105h5v1h-5zM413 105h12v1h-12zM89 106h7v1h-7zM146 106h16v1h-16zM266 106h3v1h-3zM352 106h5v1h-5zM415 106h11v1h-11zM89 107h6v1h-6zM143 107h17v1h-17zM266 107h3v1h-3zM354 107h4v1h-4zM415 107h11v1h-11zM87 108h7v1h-7zM142 108h17v1h-17zM266 108h3v1h-3zM354 108h6v1h-6zM415 108h12v1h-12zM87 109h6v1h-6zM141 109h16v1h-16zM272 109h3v1h-3zM355 109h6v1h-6zM417 109h12v1h-12zM86 110h7v1h-7zM139 110h16v1h-16zM272 110h5v1h-5zM356 110h6v1h-6zM417 110h12v1h-12zM86 111h6v1h-6zM137 111h16v1h-16zM272 111h5v1h-5zM357 111h6v1h-6zM419 111h11v1h-11zM84 112h7v1h-7zM137 112h14v1h-14zM274 112h6v1h-6zM359 112h4v1h-4zM419 112h11v1h-11zM84 113h6v1h-6zM135 113h14v1h-14zM277 113h3v1h-3zM359 113h4v1h-4zM419 113h13v1h-13zM83 114h6v1h-6zM133 114h14v1h-14zM277 114h3v1h-3zM360 114h5v1h-5zM421 114h11v1h-11zM82 115h7v1h-7zM131 115h15v1h-15zM360 115h6v1h-6zM421 115h12v1h-12zM82 116h6v1h-6zM130 116h15v1h-15zM283 116h3v1h-3zM361 116h5v1h-5zM422 116h12v1h-12zM81 117h6v1h-6zM129 117h14v1h-14zM283 117h3v1h-3zM362 117h5v1h-5zM423 117h11v1h-11zM80 118h6v1h-6zM128 118h14v1h-14zM283 118h3v1h-3zM362 118h6v1h-6zM424 118h11v1h-11zM79 119h6v1h-6zM127 119h13v1h-13zM364 119h4v1h-4zM424 119h11v1h-11zM79 120h6v1h-6zM125 120h14v1h-14zM289 120h3v1h-3zM364 120h6v1h-6zM424 120h12v1h-12zM78 121h6v1h-6zM125 121h12v1h-12zM289 121h3v1h-3zM365 121h5v1h-5zM425 121h12v1h-12zM77 122h6v1h-6zM123 122h13v1h-13zM289 122h3v1h-3zM366 122h5v1h-5zM426 122h11v1h-11zM77 123h6v1h-6zM121 123h14v1h-14zM292 123h3v1h-3zM367 123h4v1h-4zM374 123h3v1h-3zM427 123h11v1h-11zM75 124h7v1h-7zM121 124h13v1h-13zM292 124h3v1h-3zM368 124h9v1h-9zM427 124h12v1h-12zM75 125h6v1h-6zM120 125h12v1h-12zM292 125h3v1h-3zM368 125h9v1h-9zM428 125h11v1h-11zM74 126h6v1h-6zM118 126h13v1h-13zM368 126h7v1h-7zM428 126h12v1h-12zM74 127h6v1h-6zM118 127h12v1h-12zM370 127h5v1h-5zM430 127h10v1h-10zM73 128h6v1h-6zM116 128h13v1h-13zM370 128h5v1h-5zM430 128h11v1h-11zM72 129h6v1h-6zM116 129h12v1h-12zM371 129h4v1h-4zM430 129h12v1h-12zM72 130h6v1h-6zM114 130h13v1h-13zM301 130h3v1h-3zM372 130h5v1h-5zM431 130h11v1h-11zM71 131h6v1h-6zM113 131h13v1h-13zM301 131h3v1h-3zM372 131h5v1h-5zM431 131h12v1h-12zM71 132h5v1h-5zM113 132h12v1h-12zM301 132h3v1h-3zM372 132h6v1h-6zM432 132h11v1h-11zM70 133h6v1h-6zM112 133h12v1h-12zM374 133h4v1h-4zM433 133h11v1h-11zM70 134h5v1h-5zM111 134h11v1h-11zM374 134h5v1h-5zM433 134h12v1h-12zM68 135h6v1h-6zM110 135h11v1h-11zM306 135h3v1h-3zM374 135h10v1h-10zM434 135h11v1h-11zM68 136h6v1h-6zM109 136h12v1h-12zM306 136h4v1h-4zM376 136h9v1h-9zM434 136h12v1h-12zM68 137h5v1h-5zM108 137h11v1h-11zM306 137h4v1h-4zM376 137h9v1h-9zM435 137h11v1h-11zM67 138h6v1h-6zM107 138h12v1h-12zM306 138h4v1h-4zM377 138h9v1h-9zM436 138h11v1h-11zM66 139h6v1h-6zM106 139h12v1h-12zM377 139h9v1h-9zM436 139h11v1h-11zM66 140h5v1h-5zM105 140h12v1h-12zM310 140h3v1h-3zM378 140h9v1h-9zM437 140h11v1h-11zM65 141h6v1h-6zM104 141h12v1h-12zM310 141h3v1h-3zM378 141h9v1h-9zM438 141h10v1h-10zM65 142h5v1h-5zM103 142h12v1h-12zM310 142h3v1h-3zM379 142h8v1h-8zM438 142h10v1h-10zM65 143h5v1h-5zM103 143h11v1h-11zM380 143h9v1h-9zM439 143h10v1h-10zM64 144h5v1h-5zM102 144h11v1h-11zM380 144h9v1h-9zM439 144h10v1h-10zM63 145h6v1h-6zM101 145h12v1h-12zM380 145h9v1h-9zM439 145h11v1h-11zM63 146h5v1h-5zM101 146h11v1h-11zM315 146h3v1h-3zM381 146h8v1h-8zM441 146h9v1h-9zM63 147h5v1h-5zM100 147h11v1h-11zM315 147h3v1h-3zM382 147h5v1h-5zM441 147h10v1h-10zM62 148h5v1h-5zM99 148h11v1h-11zM315 148h4v1h-4zM382 148h5v1h-5zM441 148h10v1h-10zM61 149h6v1h-6zM98 149h11v1h-11zM316 149h3v1h-3zM383 149h4v1h-4zM442 149h10v1h-10zM61 150h5v1h-5zM97 150h11v1h-11zM316 150h3v1h-3zM384 150h4v1h-4zM442 150h10v1h-10zM61 151h5v1h-5zM97 151h11v1h-11zM384 151h4v1h-4zM443 151h9v1h-9zM59 152h6v1h-6zM96 152h11v1h-11zM384 152h9v1h-9zM443 152h10v1h-10zM59 153h6v1h-6zM95 153h11v1h-11zM320 153h3v1h-3zM385 153h8v1h-8zM443 153h10v1h-10zM59 154h5v1h-5zM95 154h11v1h-11zM320 154h3v1h-3zM386 154h8v1h-8zM443 154h11v1h-11zM59 155h5v1h-5zM94 155h11v1h-11zM320 155h3v1h-3zM386 155h8v1h-8zM446 155h9v1h-9zM58 156h5v1h-5zM93 156h11v1h-11zM387 156h7v1h-7zM446 156h9v1h-9zM57 157h6v1h-6zM93 157h10v1h-10zM387 157h7v1h-7zM446 157h9v1h-9zM57 158h5v1h-5zM92 158h11v1h-11zM387 158h9v1h-9zM446 158h9v1h-9zM57 159h5v1h-5zM91 159h11v1h-11zM325 159h3v1h-3zM387 159h9v1h-9zM446 159h10v1h-10zM56 160h5v1h-5zM91 160h10v1h-10zM325 160h3v1h-3zM388 160h8v1h-8zM446 160h10v1h-10zM56 161h5v1h-5zM90 161h11v1h-11zM325 161h3v1h-3zM389 161h9v1h-9zM447 161h9v1h-9zM56 162h4v1h-4zM90 162h10v1h-10zM325 162h4v1h-4zM389 162h9v1h-9zM447 162h10v1h-10zM55 163h5v1h-5zM90 163h10v1h-10zM326 163h3v1h-3zM389 163h9v1h-9zM448 163h9v1h-9zM55 164h5v1h-5zM89 164h10v1h-10zM326 164h3v1h-3zM390 164h8v1h-8zM448 164h10v1h-10zM54 165h5v1h-5zM88 165h10v1h-10zM390 165h9v1h-9zM448 165h10v1h-10zM54 166h5v1h-5zM87 166h11v1h-11zM391 166h8v1h-8zM453 166h5v1h-5zM53 167h5v1h-5zM87 167h10v1h-10zM329 167h3v1h-3zM391 167h8v1h-8zM453 167h5v1h-5zM53 168h5v1h-5zM87 168h10v1h-10zM329 168h3v1h-3zM392 168h7v1h-7zM454 168h5v1h-5zM52 169h6v1h-6zM86 169h10v1h-10zM329 169h3v1h-3zM392 169h7v1h-7zM454 169h5v1h-5zM52 170h5v1h-5zM85 170h11v1h-11zM329 170h4v1h-4zM393 170h8v1h-8zM455 170h4v1h-4zM52 171h5v1h-5zM85 171h10v1h-10zM330 171h4v1h-4zM393 171h8v1h-8zM455 171h5v1h-5zM51 172h5v1h-5zM84 172h11v1h-11zM330 172h4v1h-4zM393 172h9v1h-9zM455 172h5v1h-5zM51 173h5v1h-5zM84 173h10v1h-10zM331 173h3v1h-3zM394 173h8v1h-8zM456 173h5v1h-5zM50 174h6v1h-6zM83 174h11v1h-11zM331 174h3v1h-3zM394 174h8v1h-8zM456 174h5v1h-5zM50 175h5v1h-5zM83 175h10v1h-10zM395 175h7v1h-7zM456 175h5v1h-5zM50 176h5v1h-5zM82 176h10v1h-10zM395 176h8v1h-8zM456 176h5v1h-5zM50 177h4v1h-4zM82 177h10v1h-10zM395 177h8v1h-8zM457 177h5v1h-5zM49 178h5v1h-5zM82 178h10v1h-10zM395 178h8v1h-8zM457 178h5v1h-5zM49 179h5v1h-5zM81 179h10v1h-10zM396 179h8v1h-8zM457 179h5v1h-5zM49 180h5v1h-5zM80 180h10v1h-10zM336 180h3v1h-3zM397 180h8v1h-8zM458 180h5v1h-5zM48 181h5v1h-5zM80 181h10v1h-10zM336 181h3v1h-3zM397 181h8v1h-8zM458 181h5v1h-5zM48 182h5v1h-5zM80 182h10v1h-10zM336 182h3v1h-3zM397 182h8v1h-8zM458 182h5v1h-5zM48 183h4v1h-4zM80 183h9v1h-9zM336 183h3v1h-3zM397 183h8v1h-8zM458 183h6v1h-6zM48 184h4v1h-4zM79 184h10v1h-10zM336 184h4v1h-4zM397 184h9v1h-9zM459 184h5v1h-5zM47 185h5v1h-5zM79 185h9v1h-9zM337 185h3v1h-3zM398 185h8v1h-8zM459 185h5v1h-5zM47 186h4v1h-4zM78 186h10v1h-10zM337 186h4v1h-4zM398 186h8v1h-8zM459 186h5v1h-5zM47 187h4v1h-4zM78 187h9v1h-9zM338 187h3v1h-3zM398 187h9v1h-9zM460 187h5v1h-5zM46 188h5v1h-5zM77 188h10v1h-10zM338 188h3v1h-3zM399 188h8v1h-8zM460 188h5v1h-5zM46 189h5v1h-5zM77 189h10v1h-10zM338 189h3v1h-3zM399 189h8v1h-8zM460 189h5v1h-5zM46 190h4v1h-4zM77 190h9v1h-9zM339 190h3v1h-3zM400 190h7v1h-7zM461 190h5v1h-5zM46 191h4v1h-4zM76 191h10v1h-10zM339 191h3v1h-3zM400 191h8v1h-8zM461 191h5v1h-5zM45 192h5v1h-5zM76 192h9v1h-9zM339 192h3v1h-3zM400 192h8v1h-8zM461 192h5v1h-5zM45 193h5v1h-5zM76 193h9v1h-9zM341 193h1v1h-1zM400 193h8v1h-8zM461 193h5v1h-5zM45 194h4v1h-4zM75 194h10v1h-10zM341 194h1v1h-1zM401 194h7v1h-7zM462 194h4v1h-4zM44 195h5v1h-5zM75 195h9v1h-9zM341 195h3v1h-3zM401 195h8v1h-8zM462 195h5v1h-5zM44 196h5v1h-5zM74 196h10v1h-10zM211 196h3v1h-3zM341 196h4v1h-4zM401 196h8v1h-8zM462 196h5v1h-5zM44 197h5v1h-5zM74 197h10v1h-10zM203 197h19v1h-19zM341 197h4v1h-4zM401 197h8v1h-8zM462 197h5v1h-5zM44 198h4v1h-4zM74 198h9v1h-9zM199 198h26v1h-26zM341 198h4v1h-4zM401 198h9v1h-9zM463 198h5v1h-5zM44 199h4v1h-4zM73 199h10v1h-10zM196 199h32v1h-32zM342 199h3v1h-3zM402 199h8v1h-8zM463 199h5v1h-5zM43 200h5v1h-5zM73 200h10v1h-10zM194 200h37v1h-37zM342 200h3v1h-3zM402 200h8v1h-8zM463 200h5v1h-5zM43 201h5v1h-5zM73 201h9v1h-9zM192 201h41v1h-41zM343 201h3v1h-3zM402 201h8v1h-8zM463 201h5v1h-5zM43 202h4v1h-4zM72 202h10v1h-10zM190 202h45v1h-45zM343 202h3v1h-3zM403 202h7v1h-7zM464 202h5v1h-5zM43 203h4v1h-4zM72 203h10v1h-10zM188 203h48v1h-48zM343 203h3v1h-3zM403 203h8v1h-8zM464 203h5v1h-5zM42 204h5v1h-5zM72 204h9v1h-9zM187 204h51v1h-51zM344 204h2v1h-2zM403 204h8v1h-8zM464 204h5v1h-5zM42 205h5v1h-5zM72 205h9v1h-9zM185 205h55v1h-55zM344 205h3v1h-3zM403 205h8v1h-8zM464 205h6v1h-6zM42 206h4v1h-4zM72 206h9v1h-9zM184 206h25v1h-25zM217 206h24v1h-24zM344 206h3v1h-3zM404 206h7v1h-7zM465 206h5v1h-5zM42 207h4v1h-4zM71 207h10v1h-10zM183 207h20v1h-20zM222 207h20v1h-20zM344 207h3v1h-3zM404 207h7v1h-7zM465 207h5v1h-5zM42 208h4v1h-4zM71 208h9v1h-9zM181 208h18v1h-18zM223 208h9v1h-9zM235 208h8v1h-8zM345 208h3v1h-3zM404 208h7v1h-7zM465 208h5v1h-5zM42 209h4v1h-4zM71 209h9v1h-9zM180 209h17v1h-17zM223 209h9v1h-9zM237 209h8v1h-8zM345 209h3v1h-3zM404 209h8v1h-8zM465 209h5v1h-5zM42 210h4v1h-4zM71 210h9v1h-9zM179 210h13v1h-13zM227 210h3v1h-3zM238 210h8v1h-8zM345 210h3v1h-3zM404 210h9v1h-9zM465 210h5v1h-5zM41 211h5v1h-5zM70 211h9v1h-9zM178 211h14v1h-14zM239 211h8v1h-8zM346 211h3v1h-3zM404 211h9v1h-9zM466 211h4v1h-4zM41 212h4v1h-4zM70 212h9v1h-9zM177 212h15v1h-15zM241 212h7v1h-7zM346 212h3v1h-3zM404 212h9v1h-9zM466 212h4v1h-4zM41 213h4v1h-4zM70 213h9v1h-9zM176 213h13v1h-13zM242 213h7v1h-7zM346 213h3v1h-3zM405 213h8v1h-8zM466 213h5v1h-5zM41 214h4v1h-4zM70 214h9v1h-9zM175 214h7v1h-7zM185 214h3v1h-3zM243 214h6v1h-6zM346 214h3v1h-3zM405 214h8v1h-8zM466 214h5v1h-5zM41 215h4v1h-4zM69 215h9v1h-9zM174 215h8v1h-8zM244 215h6v1h-6zM346 215h3v1h-3zM405 215h8v1h-8zM466 215h5v1h-5zM41 216h4v1h-4zM69 216h9v1h-9zM174 216h8v1h-8zM245 216h6v1h-6zM347 216h3v1h-3zM405 216h8v1h-8zM466 216h5v1h-5zM40 217h5v1h-5zM69 217h9v1h-9zM173 217h10v1h-10zM245 217h7v1h-7zM347 217h3v1h-3zM405 217h8v1h-8zM466 217h5v1h-5zM40 218h4v1h-4zM69 218h9v1h-9zM172 218h11v1h-11zM246 218h7v1h-7zM347 218h3v1h-3zM405 218h9v1h-9zM467 218h4v1h-4zM39 219h5v1h-5zM68 219h10v1h-10zM171 219h12v1h-12zM247 219h6v1h-6zM348 219h2v1h-2zM405 219h9v1h-9zM467 219h5v1h-5zM39 220h5v1h-5zM68 220h9v1h-9zM171 220h12v1h-12zM248 220h6v1h-6zM348 220h3v1h-3zM406 220h8v1h-8zM467 220h5v1h-5zM39 221h5v1h-5zM68 221h9v1h-9zM170 221h12v1h-12zM249 221h6v1h-6zM348 221h3v1h-3zM406 221h8v1h-8zM463 221h9v1h-9zM39 222h5v1h-5zM68 222h9v1h-9zM170 222h10v1h-10zM249 222h6v1h-6zM348 222h3v1h-3zM406 222h8v1h-8zM463 222h9v1h-9zM39 223h5v1h-5zM68 223h9v1h-9zM169 223h11v1h-11zM250 223h6v1h-6zM348 223h4v1h-4zM406 223h8v1h-8zM463 223h9v1h-9zM39 224h4v1h-4zM68 224h8v1h-8zM168 224h10v1h-10zM251 224h5v1h-5zM348 224h4v1h-4zM406 224h8v1h-8zM468 224h4v1h-4zM39 225h4v1h-4zM68 225h8v1h-8zM168 225h10v1h-10zM251 225h6v1h-6zM348 225h4v1h-4zM407 225h7v1h-7zM468 225h4v1h-4zM39 226h4v1h-4zM68 226h8v1h-8zM168 226h9v1h-9zM251 226h6v1h-6zM348 226h3v1h-3zM407 226h8v1h-8zM468 226h5v1h-5zM38 227h5v1h-5zM67 227h9v1h-9zM167 227h10v1h-10zM211 227h3v1h-3zM247 227h11v1h-11zM348 227h3v1h-3zM407 227h8v1h-8zM468 227h5v1h-5zM38 228h5v1h-5zM67 228h9v1h-9zM167 228h9v1h-9zM211 228h3v1h-3zM247 228h3v1h-3zM253 228h6v1h-6zM349 228h2v1h-2zM407 228h8v1h-8zM468 228h5v1h-5zM38 229h5v1h-5zM67 229h9v1h-9zM166 229h10v1h-10zM211 229h3v1h-3zM247 229h3v1h-3zM253 229h6v1h-6zM349 229h2v1h-2zM407 229h8v1h-8zM468 229h5v1h-5zM39 230h4v1h-4zM67 230h9v1h-9zM166 230h9v1h-9zM214 230h3v1h-3zM247 230h3v1h-3zM253 230h6v1h-6zM349 230h3v1h-3zM407 230h8v1h-8zM468 230h5v1h-5zM39 231h4v1h-4zM67 231h9v1h-9zM165 231h10v1h-10zM214 231h5v1h-5zM249 231h10v1h-10zM349 231h3v1h-3zM407 231h8v1h-8zM468 231h5v1h-5zM39 232h4v1h-4zM67 232h8v1h-8zM165 232h9v1h-9zM214 232h5v1h-5zM249 232h11v1h-11zM349 232h3v1h-3zM407 232h8v1h-8zM468 232h5v1h-5zM38 233h5v1h-5zM67 233h8v1h-8zM165 233h9v1h-9zM216 233h3v1h-3zM249 233h11v1h-11zM350 233h2v1h-2zM407 233h8v1h-8zM469 233h4v1h-4zM38 234h4v1h-4zM67 234h8v1h-8zM164 234h10v1h-10zM216 234h3v1h-3zM249 234h12v1h-12zM350 234h3v1h-3zM408 234h8v1h-8zM469 234h4v1h-4zM38 235h4v1h-4zM67 235h8v1h-8zM164 235h9v1h-9zM256 235h5v1h-5zM350 235h3v1h-3zM408 235h8v1h-8zM465 235h8v1h-8zM38 236h4v1h-4zM66 236h9v1h-9zM164 236h9v1h-9zM256 236h5v1h-5zM350 236h3v1h-3zM408 236h8v1h-8zM465 236h9v1h-9zM38 237h4v1h-4zM66 237h9v1h-9zM163 237h10v1h-10zM256 237h6v1h-6zM408 237h8v1h-8zM465 237h9v1h-9zM38 238h4v1h-4zM66 238h9v1h-9zM163 238h9v1h-9zM256 238h6v1h-6zM408 238h8v1h-8zM465 238h9v1h-9zM38 239h4v1h-4zM66 239h9v1h-9zM163 239h9v1h-9zM252 239h10v1h-10zM408 239h8v1h-8zM465 239h9v1h-9zM38 240h4v1h-4zM66 240h9v1h-9zM163 240h9v1h-9zM252 240h10v1h-10zM408 240h8v1h-8zM465 240h9v1h-9zM38 241h4v1h-4zM66 241h9v1h-9zM162 241h10v1h-10zM252 241h3v1h-3zM258 241h5v1h-5zM408 241h8v1h-8zM465 241h9v1h-9zM38 242h4v1h-4zM66 242h9v1h-9zM162 242h9v1h-9zM258 242h5v1h-5zM408 242h8v1h-8zM465 242h9v1h-9zM38 243h4v1h-4zM66 243h8v1h-8zM162 243h9v1h-9zM258 243h5v1h-5zM351 243h3v1h-3zM408 243h8v1h-8zM469 243h5v1h-5zM38 244h4v1h-4zM65 244h9v1h-9zM162 244h9v1h-9zM258 244h5v1h-5zM351 244h3v1h-3zM408 244h8v1h-8zM469 244h5v1h-5zM38 245h4v1h-4zM65 245h9v1h-9zM162 245h8v1h-8zM258 245h5v1h-5zM351 245h3v1h-3zM408 245h9v1h-9zM469 245h5v1h-5zM38 246h4v1h-4zM65 246h9v1h-9zM162 246h8v1h-8zM259 246h4v1h-4zM351 246h3v1h-3zM408 246h9v1h-9zM469 246h5v1h-5zM38 247h4v1h-4zM65 247h9v1h-9zM161 247h9v1h-9zM259 247h5v1h-5zM351 247h3v1h-3zM408 247h9v1h-9zM469 247h5v1h-5zM37 248h5v1h-5zM65 248h9v1h-9zM161 248h9v1h-9zM259 248h5v1h-5zM351 248h3v1h-3zM408 248h9v1h-9zM469 248h5v1h-5zM37 249h4v1h-4zM65 249h9v1h-9zM161 249h9v1h-9zM259 249h5v1h-5zM351 249h3v1h-3zM409 249h8v1h-8zM469 249h4v1h-4zM37 250h4v1h-4zM65 250h9v1h-9zM161 250h9v1h-9zM174 250h3v1h-3zM259 250h5v1h-5zM351 250h3v1h-3zM409 250h8v1h-8zM469 250h4v1h-4zM37 251h4v1h-4zM65 251h9v1h-9zM161 251h9v1h-9zM174 251h3v1h-3zM259 251h5v1h-5zM351 251h3v1h-3zM409 251h7v1h-7zM469 251h4v1h-4zM37 252h4v1h-4zM65 252h9v1h-9zM161 252h9v1h-9zM174 252h3v1h-3zM259 252h5v1h-5zM351 252h3v1h-3zM409 252h7v1h-7zM469 252h4v1h-4zM37 253h4v1h-4zM65 253h9v1h-9zM161 253h9v1h-9zM174 253h2v1h-2zM259 253h5v1h-5zM351 253h3v1h-3zM409 253h7v1h-7zM469 253h5v1h-5zM37 254h4v1h-4zM65 254h9v1h-9zM161 254h9v1h-9zM173 254h3v1h-3zM259 254h5v1h-5zM351 254h3v1h-3zM409 254h8v1h-8zM469 254h5v1h-5zM37 255h4v1h-4zM65 255h9v1h-9zM161 255h9v1h-9zM173 255h3v1h-3zM259 255h5v1h-5zM351 255h3v1h-3zM409 255h8v1h-8zM469 255h5v1h-5zM37 256h4v1h-4zM65 256h9v1h-9zM161 256h9v1h-9zM173 256h3v1h-3zM218 256h3v1h-3zM259 256h5v1h-5zM351 256h3v1h-3zM409 256h8v1h-8zM469 256h4v1h-4zM37 257h4v1h-4zM65 257h9v1h-9zM161 257h9v1h-9zM174 257h2v1h-2zM218 257h3v1h-3zM259 257h5v1h-5zM409 257h7v1h-7zM469 257h4v1h-4zM37 258h4v1h-4zM65 258h9v1h-9zM161 258h9v1h-9zM174 258h3v1h-3zM218 258h3v1h-3zM259 258h5v1h-5zM408 258h8v1h-8zM469 258h4v1h-4zM37 259h4v1h-4zM65 259h9v1h-9zM161 259h9v1h-9zM174 259h3v1h-3zM259 259h5v1h-5zM408 259h8v1h-8zM469 259h5v1h-5zM37 260h4v1h-4zM65 260h9v1h-9zM161 260h9v1h-9zM174 260h3v1h-3zM259 260h5v1h-5zM408 260h8v1h-8zM469 260h5v1h-5zM37 261h4v1h-4zM65 261h9v1h-9zM161 261h9v1h-9zM174 261h3v1h-3zM259 261h5v1h-5zM408 261h8v1h-8zM469 261h5v1h-5zM38 262h3v1h-3zM65 262h9v1h-9zM161 262h9v1h-9zM175 262h2v1h-2zM259 262h5v1h-5zM408 262h8v1h-8zM469 262h5v1h-5zM38 263h4v1h-4zM65 263h9v1h-9zM161 263h9v1h-9zM175 263h2v1h-2zM259 263h5v1h-5zM408 263h9v1h-9zM469 263h5v1h-5zM38 264h4v1h-4zM65 264h9v1h-9zM162 264h8v1h-8zM175 264h3v1h-3zM259 264h4v1h-4zM408 264h9v1h-9zM469 264h5v1h-5zM38 265h4v1h-4zM65 265h9v1h-9zM162 265h8v1h-8zM175 265h3v1h-3zM259 265h4v1h-4zM408 265h9v1h-9zM469 265h5v1h-5zM38 266h4v1h-4zM66 266h8v1h-8zM162 266h8v1h-8zM175 266h3v1h-3zM253 266h10v1h-10zM351 266h3v1h-3zM408 266h9v1h-9zM469 266h5v1h-5zM38 267h4v1h-4zM66 267h8v1h-8zM162 267h9v1h-9zM253 267h10v1h-10zM351 267h3v1h-3zM408 267h9v1h-9zM469 267h4v1h-4zM38 268h4v1h-4zM66 268h8v1h-8zM162 268h9v1h-9zM253 268h10v1h-10zM351 268h3v1h-3zM408 268h8v1h-8zM469 268h4v1h-4zM37 269h5v1h-5zM66 269h9v1h-9zM162 269h9v1h-9zM253 269h10v1h-10zM350 269h3v1h-3zM408 269h8v1h-8zM469 269h4v1h-4zM37 270h5v1h-5zM66 270h9v1h-9zM163 270h8v1h-8zM257 270h5v1h-5zM350 270h3v1h-3zM408 270h8v1h-8zM469 270h4v1h-4zM37 271h5v1h-5zM66 271h9v1h-9zM163 271h9v1h-9zM257 271h5v1h-5zM350 271h3v1h-3zM408 271h8v1h-8zM469 271h4v1h-4zM38 272h4v1h-4zM66 272h9v1h-9zM163 272h9v1h-9zM257 272h5v1h-5zM350 272h3v1h-3zM408 272h8v1h-8zM468 272h5v1h-5zM38 273h4v1h-4zM66 273h9v1h-9zM163 273h9v1h-9zM257 273h5v1h-5zM350 273h3v1h-3zM408 273h8v1h-8zM468 273h5v1h-5zM38 274h4v1h-4zM66 274h9v1h-9zM164 274h9v1h-9zM256 274h6v1h-6zM350 274h3v1h-3zM408 274h8v1h-8zM468 274h5v1h-5zM38 275h4v1h-4zM66 275h9v1h-9zM164 275h10v1h-10zM256 275h5v1h-5zM350 275h3v1h-3zM407 275h9v1h-9zM468 275h5v1h-5zM38 276h4v1h-4zM66 276h9v1h-9zM164 276h10v1h-10zM256 276h5v1h-5zM350 276h3v1h-3zM407 276h9v1h-9zM468 276h5v1h-5zM38 277h4v1h-4zM67 277h8v1h-8zM165 277h9v1h-9zM182 277h4v1h-4zM255 277h6v1h-6zM349 277h4v1h-4zM407 277h9v1h-9zM468 277h5v1h-5zM38 278h5v1h-5zM67 278h8v1h-8zM165 278h10v1h-10zM182 278h5v1h-5zM197 278h3v1h-3zM255 278h5v1h-5zM349 278h4v1h-4zM407 278h9v1h-9zM468 278h4v1h-4zM38 279h5v1h-5zM67 279h9v1h-9zM165 279h10v1h-10zM182 279h5v1h-5zM197 279h3v1h-3zM255 279h5v1h-5zM349 279h4v1h-4zM407 279h9v1h-9zM468 279h4v1h-4zM38 280h5v1h-5zM67 280h9v1h-9zM166 280h9v1h-9zM184 280h5v1h-5zM197 280h3v1h-3zM248 280h3v1h-3zM254 280h6v1h-6zM349 280h4v1h-4zM407 280h9v1h-9zM468 280h4v1h-4zM38 281h5v1h-5zM67 281h9v1h-9zM166 281h13v1h-13zM184 281h7v1h-7zM248 281h3v1h-3zM254 281h5v1h-5zM349 281h4v1h-4zM407 281h9v1h-9zM468 281h4v1h-4zM38 282h5v1h-5zM67 282h9v1h-9zM166 282h13v1h-13zM186 282h7v1h-7zM247 282h12v1h-12zM349 282h4v1h-4zM407 282h9v1h-9zM468 282h4v1h-4zM38 283h5v1h-5zM67 283h9v1h-9zM167 283h12v1h-12zM187 283h6v1h-6zM247 283h11v1h-11zM349 283h3v1h-3zM407 283h8v1h-8zM463 283h9v1h-9zM39 284h4v1h-4zM68 284h8v1h-8zM167 284h12v1h-12zM190 284h3v1h-3zM245 284h13v1h-13zM349 284h3v1h-3zM407 284h8v1h-8zM463 284h9v1h-9zM39 285h4v1h-4zM68 285h8v1h-8zM168 285h11v1h-11zM190 285h3v1h-3zM201 285h7v1h-7zM245 285h3v1h-3zM251 285h6v1h-6zM349 285h3v1h-3zM407 285h8v1h-8zM463 285h9v1h-9zM39 286h4v1h-4zM68 286h9v1h-9zM168 286h11v1h-11zM196 286h12v1h-12zM245 286h3v1h-3zM251 286h6v1h-6zM407 286h8v1h-8zM467 286h5v1h-5zM39 287h5v1h-5zM68 287h9v1h-9zM169 287h10v1h-10zM196 287h12v1h-12zM251 287h6v1h-6zM406 287h9v1h-9zM467 287h5v1h-5zM39 288h5v1h-5zM68 288h9v1h-9zM169 288h12v1h-12zM196 288h3v1h-3zM249 288h7v1h-7zM406 288h9v1h-9zM467 288h5v1h-5zM40 289h4v1h-4zM68 289h9v1h-9zM170 289h16v1h-16zM249 289h6v1h-6zM348 289h3v1h-3zM406 289h9v1h-9zM467 289h4v1h-4zM40 290h4v1h-4zM68 290h9v1h-9zM170 290h16v1h-16zM243 290h3v1h-3zM249 290h6v1h-6zM348 290h3v1h-3zM406 290h9v1h-9zM467 290h4v1h-4zM40 291h4v1h-4zM69 291h8v1h-8zM171 291h15v1h-15zM243 291h11v1h-11zM348 291h3v1h-3zM406 291h8v1h-8zM467 291h4v1h-4zM40 292h4v1h-4zM69 292h9v1h-9zM172 292h14v1h-14zM209 292h3v1h-3zM241 292h12v1h-12zM348 292h2v1h-2zM406 292h8v1h-8zM466 292h5v1h-5zM40 293h4v1h-4zM69 293h9v1h-9zM172 293h14v1h-14zM209 293h3v1h-3zM241 293h12v1h-12zM347 293h3v1h-3zM406 293h8v1h-8zM466 293h5v1h-5zM41 294h4v1h-4zM69 294h9v1h-9zM173 294h13v1h-13zM209 294h3v1h-3zM238 294h14v1h-14zM347 294h3v1h-3zM405 294h9v1h-9zM466 294h5v1h-5zM41 295h4v1h-4zM69 295h9v1h-9zM174 295h13v1h-13zM238 295h13v1h-13zM347 295h3v1h-3zM405 295h9v1h-9zM466 295h5v1h-5zM41 296h4v1h-4zM70 296h9v1h-9zM175 296h12v1h-12zM238 296h12v1h-12zM346 296h3v1h-3zM405 296h8v1h-8zM462 296h9v1h-9zM41 297h4v1h-4zM70 297h9v1h-9zM176 297h11v1h-11zM192 297h5v1h-5zM235 297h14v1h-14zM346 297h3v1h-3zM405 297h8v1h-8zM462 297h8v1h-8zM41 298h4v1h-4zM70 298h9v1h-9zM176 298h9v1h-9zM192 298h5v1h-5zM231 298h18v1h-18zM346 298h3v1h-3zM404 298h9v1h-9zM462 298h8v1h-8zM41 299h4v1h-4zM70 299h9v1h-9zM177 299h8v1h-8zM192 299h5v1h-5zM231 299h17v1h-17zM346 299h2v1h-2zM404 299h9v1h-9zM465 299h5v1h-5zM41 300h5v1h-5zM70 300h10v1h-10zM178 300h7v1h-7zM193 300h4v1h-4zM231 300h3v1h-3zM237 300h10v1h-10zM346 300h2v1h-2zM404 300h9v1h-9zM465 300h5v1h-5zM42 301h4v1h-4zM71 301h9v1h-9zM179 301h8v1h-8zM193 301h4v1h-4zM227 301h5v1h-5zM237 301h9v1h-9zM345 301h3v1h-3zM404 301h9v1h-9zM465 301h5v1h-5zM42 302h4v1h-4zM71 302h9v1h-9zM181 302h7v1h-7zM193 302h5v1h-5zM225 302h7v1h-7zM237 302h8v1h-8zM345 302h3v1h-3zM404 302h9v1h-9zM465 302h5v1h-5zM42 303h4v1h-4zM71 303h10v1h-10zM182 303h7v1h-7zM193 303h7v1h-7zM223 303h9v1h-9zM235 303h8v1h-8zM345 303h3v1h-3zM403 303h10v1h-10zM465 303h4v1h-4zM42 304h5v1h-5zM72 304h9v1h-9zM183 304h17v1h-17zM218 304h24v1h-24zM403 304h9v1h-9zM464 304h5v1h-5zM42 305h5v1h-5zM72 305h9v1h-9zM184 305h16v1h-16zM208 305h33v1h-33zM403 305h9v1h-9zM464 305h5v1h-5zM43 306h4v1h-4zM72 306h10v1h-10zM185 306h14v1h-14zM204 306h36v1h-36zM403 306h9v1h-9zM464 306h5v1h-5zM43 307h4v1h-4zM72 307h10v1h-10zM187 307h12v1h-12zM204 307h15v1h-15zM223 307h15v1h-15zM403 307h8v1h-8zM464 307h5v1h-5zM43 308h4v1h-4zM72 308h10v1h-10zM188 308h11v1h-11zM204 308h6v1h-6zM223 308h14v1h-14zM343 308h3v1h-3zM402 308h9v1h-9zM463 308h5v1h-5zM43 309h5v1h-5zM73 309h9v1h-9zM190 309h20v1h-20zM223 309h12v1h-12zM343 309h3v1h-3zM402 309h9v1h-9zM459 309h9v1h-9zM43 310h5v1h-5zM73 310h10v1h-10zM192 310h18v1h-18zM219 310h14v1h-14zM343 310h3v1h-3zM402 310h9v1h-9zM459 310h9v1h-9zM44 311h4v1h-4zM74 311h9v1h-9zM194 311h37v1h-37zM402 311h9v1h-9zM459 311h9v1h-9zM44 312h4v1h-4zM74 312h9v1h-9zM197 312h31v1h-31zM402 312h8v1h-8zM458 312h10v1h-10zM44 313h5v1h-5zM74 313h10v1h-10zM199 313h26v1h-26zM401 313h9v1h-9zM458 313h9v1h-9zM44 314h5v1h-5zM74 314h10v1h-10zM204 314h18v1h-18zM341 314h3v1h-3zM401 314h9v1h-9zM458 314h9v1h-9zM44 315h5v1h-5zM75 315h9v1h-9zM341 315h3v1h-3zM401 315h9v1h-9zM458 315h9v1h-9zM45 316h4v1h-4zM75 316h10v1h-10zM341 316h3v1h-3zM400 316h10v1h-10zM458 316h9v1h-9zM45 317h5v1h-5zM75 317h10v1h-10zM341 317h3v1h-3zM400 317h9v1h-9zM458 317h9v1h-9zM45 318h5v1h-5zM76 318h9v1h-9zM400 318h9v1h-9zM461 318h5v1h-5zM45 319h5v1h-5zM76 319h10v1h-10zM400 319h9v1h-9zM461 319h5v1h-5zM46 320h4v1h-4zM77 320h9v1h-9zM399 320h10v1h-10zM461 320h5v1h-5zM47 321h4v1h-4zM77 321h10v1h-10zM399 321h9v1h-9zM460 321h5v1h-5zM47 322h4v1h-4zM77 322h10v1h-10zM399 322h9v1h-9zM460 322h5v1h-5zM47 323h4v1h-4zM77 323h10v1h-10zM398 323h9v1h-9zM460 323h5v1h-5zM47 324h5v1h-5zM78 324h10v1h-10zM337 324h3v1h-3zM398 324h9v1h-9zM460 324h5v1h-5zM47 325h5v1h-5zM78 325h10v1h-10zM337 325h3v1h-3zM398 325h9v1h-9zM459 325h5v1h-5zM47 326h5v1h-5zM79 326h10v1h-10zM337 326h3v1h-3zM397 326h10v1h-10zM459 326h5v1h-5zM48 327h4v1h-4zM79 327h10v1h-10zM397 327h9v1h-9zM459 327h5v1h-5zM48 328h5v1h-5zM79 328h10v1h-10zM397 328h9v1h-9zM458 328h5v1h-5zM48 329h5v1h-5zM80 329h10v1h-10zM397 329h9v1h-9zM458 329h5v1h-5zM49 330h4v1h-4zM80 330h10v1h-10zM396 330h9v1h-9zM458 330h5v1h-5zM49 331h5v1h-5zM81 331h10v1h-10zM396 331h9v1h-9zM457 331h5v1h-5zM50 332h4v1h-4zM81 332h10v1h-10zM395 332h10v1h-10zM457 332h5v1h-5zM50 333h5v1h-5zM82 333h10v1h-10zM395 333h9v1h-9zM457 333h5v1h-5zM51 334h4v1h-4zM82 334h10v1h-10zM395 334h9v1h-9zM456 334h6v1h-6zM51 335h4v1h-4zM83 335h10v1h-10zM395 335h9v1h-9zM456 335h5v1h-5zM51 336h4v1h-4zM83 336h10v1h-10zM332 336h3v1h-3zM394 336h9v1h-9zM456 336h5v1h-5zM51 337h5v1h-5zM83 337h11v1h-11zM332 337h3v1h-3zM394 337h9v1h-9zM455 337h6v1h-6zM51 338h5v1h-5zM84 338h10v1h-10zM332 338h3v1h-3zM393 338h9v1h-9zM455 338h5v1h-5zM52 339h5v1h-5zM85 339h10v1h-10zM393 339h9v1h-9zM455 339h5v1h-5zM52 340h5v1h-5zM85 340h11v1h-11zM393 340h9v1h-9zM454 340h5v1h-5zM53 341h5v1h-5zM85 341h11v1h-11zM392 341h9v1h-9zM454 341h5v1h-5zM53 342h5v1h-5zM86 342h11v1h-11zM328 342h3v1h-3zM392 342h9v1h-9zM453 342h6v1h-6zM53 343h5v1h-5zM87 343h10v1h-10zM328 343h3v1h-3zM391 343h10v1h-10zM453 343h5v1h-5zM54 344h5v1h-5zM87 344h11v1h-11zM328 344h3v1h-3zM391 344h9v1h-9zM453 344h5v1h-5zM54 345h5v1h-5zM88 345h10v1h-10zM391 345h9v1h-9zM452 345h5v1h-5zM55 346h5v1h-5zM88 346h11v1h-11zM390 346h10v1h-10zM452 346h5v1h-5zM55 347h5v1h-5zM89 347h10v1h-10zM389 347h10v1h-10zM451 347h6v1h-6zM55 348h5v1h-5zM89 348h11v1h-11zM389 348h10v1h-10zM451 348h5v1h-5zM56 349h5v1h-5zM90 349h11v1h-11zM389 349h10v1h-10zM446 349h10v1h-10zM56 350h5v1h-5zM91 350h10v1h-10zM388 350h10v1h-10zM446 350h9v1h-9zM56 351h6v1h-6zM91 351h11v1h-11zM324 351h3v1h-3zM388 351h9v1h-9zM446 351h9v1h-9zM57 352h5v1h-5zM92 352h11v1h-11zM324 352h3v1h-3zM387 352h10v1h-10zM448 352h7v1h-7zM57 353h5v1h-5zM93 353h10v1h-10zM324 353h3v1h-3zM387 353h10v1h-10zM448 353h6v1h-6zM58 354h5v1h-5zM93 354h11v1h-11zM386 354h10v1h-10zM448 354h6v1h-6zM58 355h6v1h-6zM94 355h11v1h-11zM321 355h3v1h-3zM386 355h10v1h-10zM448 355h6v1h-6zM59 356h5v1h-5zM94 356h12v1h-12zM321 356h3v1h-3zM386 356h10v1h-10zM448 356h5v1h-5zM59 357h6v1h-6zM95 357h11v1h-11zM321 357h3v1h-3zM385 357h10v1h-10zM447 357h5v1h-5zM60 358h5v1h-5zM96 358h11v1h-11zM318 358h3v1h-3zM384 358h10v1h-10zM447 358h5v1h-5zM60 359h6v1h-6zM96 359h12v1h-12zM318 359h3v1h-3zM384 359h10v1h-10zM446 359h6v1h-6zM61 360h5v1h-5zM97 360h11v1h-11zM317 360h4v1h-4zM384 360h9v1h-9zM446 360h5v1h-5zM61 361h6v1h-6zM98 361h11v1h-11zM317 361h3v1h-3zM382 361h11v1h-11zM445 361h5v1h-5zM62 362h5v1h-5zM99 362h11v1h-11zM317 362h3v1h-3zM382 362h11v1h-11zM445 362h5v1h-5zM62 363h5v1h-5zM99 363h12v1h-12zM382 363h10v1h-10zM445 363h5v1h-5zM63 364h5v1h-5zM100 364h11v1h-11zM381 364h11v1h-11zM444 364h5v1h-5zM63 365h5v1h-5zM101 365h11v1h-11zM381 365h10v1h-10zM444 365h5v1h-5zM64 366h5v1h-5zM102 366h11v1h-11zM380 366h11v1h-11zM443 366h5v1h-5zM65 367h5v1h-5zM102 367h12v1h-12zM380 367h10v1h-10zM442 367h6v1h-6zM65 368h5v1h-5zM103 368h12v1h-12zM379 368h11v1h-11zM442 368h6v1h-6zM65 369h6v1h-6zM104 369h12v1h-12zM378 369h11v1h-11zM441 369h6v1h-6zM66 370h5v1h-5zM105 370h12v1h-12zM378 370h10v1h-10zM441 370h5v1h-5zM67 371h5v1h-5zM106 371h11v1h-11zM378 371h10v1h-10zM440 371h6v1h-6zM67 372h6v1h-6zM106 372h13v1h-13zM377 372h11v1h-11zM440 372h6v1h-6zM67 373h6v1h-6zM108 373h11v1h-11zM376 373h11v1h-11zM439 373h6v1h-6zM68 374h6v1h-6zM108 374h12v1h-12zM376 374h10v1h-10zM439 374h5v1h-5zM68 375h6v1h-6zM109 375h12v1h-12zM375 375h10v1h-10zM438 375h6v1h-6zM70 376h5v1h-5zM110 376h12v1h-12zM374 376h11v1h-11zM438 376h5v1h-5zM70 377h6v1h-6zM111 377h12v1h-12zM374 377h11v1h-11zM437 377h6v1h-6zM71 378h5v1h-5zM112 378h12v1h-12zM373 378h11v1h-11zM436 378h6v1h-6zM71 379h6v1h-6zM113 379h12v1h-12zM373 379h10v1h-10zM436 379h6v1h-6zM72 380h6v1h-6zM114 380h12v1h-12zM372 380h10v1h-10zM435 380h6v1h-6zM72 381h6v1h-6zM115 381h12v1h-12zM298 381h3v1h-3zM372 381h10v1h-10zM434 381h6v1h-6zM73 382h6v1h-6zM115 382h14v1h-14zM298 382h3v1h-3zM371 382h11v1h-11zM434 382h6v1h-6zM73 383h7v1h-7zM117 383h13v1h-13zM298 383h3v1h-3zM369 383h12v1h-12zM433 383h6v1h-6zM75 384h5v1h-5zM118 384h13v1h-13zM369 384h11v1h-11zM432 384h7v1h-7zM75 385h6v1h-6zM119 385h13v1h-13zM369 385h10v1h-10zM432 385h6v1h-6zM76 386h6v1h-6zM120 386h13v1h-13zM368 386h11v1h-11zM431 386h6v1h-6zM77 387h6v1h-6zM121 387h14v1h-14zM367 387h11v1h-11zM431 387h6v1h-6zM77 388h6v1h-6zM122 388h14v1h-14zM367 388h10v1h-10zM430 388h6v1h-6zM78 389h6v1h-6zM124 389h13v1h-13zM366 389h11v1h-11zM429 389h6v1h-6zM79 390h6v1h-6zM125 390h14v1h-14zM365 390h11v1h-11zM429 390h6v1h-6zM79 391h6v1h-6zM125 391h15v1h-15zM364 391h11v1h-11zM428 391h6v1h-6zM80 392h6v1h-6zM127 392h14v1h-14zM284 392h3v1h-3zM364 392h11v1h-11zM428 392h6v1h-6zM80 393h7v1h-7zM128 393h15v1h-15zM282 393h5v1h-5zM363 393h11v1h-11zM427 393h6v1h-6zM82 394h6v1h-6zM129 394h15v1h-15zM282 394h5v1h-5zM362 394h11v1h-11zM426 394h7v1h-7zM82 395h6v1h-6zM131 395h15v1h-15zM282 395h3v1h-3zM361 395h11v1h-11zM425 395h7v1h-7zM83 396h6v1h-6zM132 396h15v1h-15zM282 396h3v1h-3zM360 396h11v1h-11zM425 396h6v1h-6zM84 397h6v1h-6zM133 397h16v1h-16zM360 397h11v1h-11zM424 397h7v1h-7zM84 398h7v1h-7zM135 398h16v1h-16zM359 398h11v1h-11zM423 398h7v1h-7zM85 399h7v1h-7zM137 399h15v1h-15zM274 399h3v1h-3zM358 399h12v1h-12zM423 399h6v1h-6zM86 400h6v1h-6zM138 400h16v1h-16zM274 400h3v1h-3zM357 400h12v1h-12zM422 400h7v1h-7zM87 401h6v1h-6zM140 401h16v1h-16zM274 401h3v1h-3zM356 401h12v1h-12zM421 401h6v1h-6zM87 402h7v1h-7zM141 402h17v1h-17zM356 402h11v1h-11zM420 402h7v1h-7zM89 403h6v1h-6zM143 403h17v1h-17zM265 403h3v1h-3zM354 403h12v1h-12zM419 403h7v1h-7zM89 404h7v1h-7zM145 404h18v1h-18zM265 404h3v1h-3zM354 404h11v1h-11zM419 404h7v1h-7zM90 405h7v1h-7zM146 405h18v1h-18zM260 405h8v1h-8zM353 405h11v1h-11zM418 405h6v1h-6zM92 406h6v1h-6zM149 406h18v1h-18zM260 406h4v1h-4zM352 406h12v1h-12zM417 406h7v1h-7zM92 407h7v1h-7zM150 407h19v1h-19zM260 407h4v1h-4zM351 407h12v1h-12zM416 407h7v1h-7zM93 408h7v1h-7zM152 408h20v1h-20zM350 408h12v1h-12zM415 408h7v1h-7zM94 409h6v1h-6zM154 409h22v1h-22zM251 409h3v1h-3zM350 409h10v1h-10zM414 409h8v1h-8zM95 410h6v1h-6zM156 410h22v1h-22zM247 410h7v1h-7zM348 410h12v1h-12zM413 410h8v1h-8zM95 411h7v1h-7zM157 411h24v1h-24zM244 411h10v1h-10zM348 411h11v1h-11zM413 411h7v1h-7zM96 412h7v1h-7zM162 412h25v1h-25zM241 412h11v1h-11zM346 412h12v1h-12zM412 412h7v1h-7zM97 413h7v1h-7zM163 413h27v1h-27zM238 413h9v1h-9zM345 413h12v1h-12zM411 413h7v1h-7zM99 414h6v1h-6zM168 414h28v1h-28zM228 414h7v1h-7zM238 414h6v1h-6zM345 414h12v1h-12zM410 414h7v1h-7zM99 415h7v1h-7zM168 415h34v1h-34zM218 415h17v1h-17zM238 415h3v1h-3zM344 415h11v1h-11zM409 415h7v1h-7zM100 416h7v1h-7zM172 416h42v1h-42zM217 416h18v1h-18zM342 416h12v1h-12zM408 416h7v1h-7zM101 417h8v1h-8zM175 417h39v1h-39zM217 417h16v1h-16zM342 417h11v1h-11zM407 417h7v1h-7zM102 418h8v1h-8zM179 418h16v1h-16zM202 418h12v1h-12zM217 418h4v1h-4zM340 418h12v1h-12zM406 418h8v1h-8zM103 419h8v1h-8zM184 419h11v1h-11zM339 419h12v1h-12zM405 419h7v1h-7zM105 420h7v1h-7zM189 420h6v1h-6zM338 420h12v1h-12zM404 420h7v1h-7zM106 421h7v1h-7zM337 421h12v1h-12zM404 421h7v1h-7zM107 422h7v1h-7zM335 422h13v1h-13zM403 422h7v1h-7zM107 423h8v1h-8zM335 423h12v1h-12zM401 423h8v1h-8zM109 424h8v1h-8zM334 424h12v1h-12zM400 424h8v1h-8zM110 425h8v1h-8zM332 425h13v1h-13zM399 425h9v1h-9zM111 426h8v1h-8zM331 426h12v1h-12zM398 426h8v1h-8zM112 427h8v1h-8zM330 427h12v1h-12zM397 427h8v1h-8zM114 428h7v1h-7zM328 428h13v1h-13zM396 428h8v1h-8zM115 429h8v1h-8zM327 429h12v1h-12zM395 429h8v1h-8zM116 430h8v1h-8zM326 430h13v1h-13zM394 430h8v1h-8zM117 431h8v1h-8zM325 431h12v1h-12zM392 431h9v1h-9zM118 432h9v1h-9zM323 432h13v1h-13zM391 432h9v1h-9zM120 433h8v1h-8zM322 433h13v1h-13zM390 433h8v1h-8zM121 434h9v1h-9zM320 434h14v1h-14zM389 434h8v1h-8zM122 435h9v1h-9zM320 435h12v1h-12zM388 435h8v1h-8zM124 436h8v1h-8zM320 436h10v1h-10zM386 436h9v1h-9zM125 437h9v1h-9zM315 437h15v1h-15zM385 437h9v1h-9zM126 438h10v1h-10zM314 438h14v1h-14zM384 438h8v1h-8zM128 439h9v1h-9zM314 439h12v1h-12zM383 439h8v1h-8zM130 440h9v1h-9zM314 440h11v1h-11zM381 440h9v1h-9zM131 441h9v1h-9zM314 441h9v1h-9zM380 441h8v1h-8zM132 442h10v1h-10zM314 442h7v1h-7zM379 442h8v1h-8zM134 443h10v1h-10zM314 443h6v1h-6zM377 443h9v1h-9zM136 444h9v1h-9zM312 444h6v1h-6zM376 444h9v1h-9zM137 445h10v1h-10zM312 445h5v1h-5zM374 445h9v1h-9zM139 446h10v1h-10zM308 446h7v1h-7zM373 446h10v1h-10zM141 447h10v1h-10zM308 447h4v1h-4zM371 447h10v1h-10zM143 448h10v1h-10zM304 448h8v1h-8zM370 448h9v1h-9zM144 449h11v1h-11zM302 449h5v1h-5zM368 449h10v1h-10zM146 450h12v1h-12zM301 450h6v1h-6zM366 450h11v1h-11zM148 451h12v1h-12zM299 451h7v1h-7zM365 451h10v1h-10zM150 452h12v1h-12zM299 452h5v1h-5zM363 452h11v1h-11zM152 453h12v1h-12zM294 453h8v1h-8zM361 453h11v1h-11zM154 454h13v1h-13zM294 454h3v1h-3zM359 454h11v1h-11zM156 455h14v1h-14zM294 455h3v1h-3zM357 455h11v1h-11zM159 456h13v1h-13zM355 456h12v1h-12zM161 457h14v1h-14zM353 457h13v1h-13zM164 458h15v1h-15zM281 458h3v1h-3zM351 458h12v1h-12zM165 459h17v1h-17zM281 459h3v1h-3zM349 459h12v1h-12zM169 460h16v1h-16zM281 460h3v1h-3zM346 460h12v1h-12zM171 461h18v1h-18zM344 461h13v1h-13zM174 462h20v1h-20zM341 462h14v1h-14zM178 463h22v1h-22zM258 463h3v1h-3zM339 463h13v1h-13zM182 464h24v1h-24zM249 464h5v1h-5zM258 464h3v1h-3zM337 464h13v1h-13zM185 465h31v1h-31zM239 465h15v1h-15zM258 465h3v1h-3zM334 465h14v1h-14zM190 466h30v1h-30zM228 466h26v1h-26zM331 466h14v1h-14zM195 467h27v1h-27zM228 467h23v1h-23zM328 467h15v1h-15zM200 468h25v1h-25zM228 468h18v1h-18zM325 468h15v1h-15zM208 469h29v1h-29zM322 469h16v1h-16zM216 470h21v1h-21zM318 470h17v1h-17zM218 471h19v1h-19zM314 471h19v1h-19zM221 472h20v1h-20zM310 472h19v1h-19zM224 473h23v1h-23zM304 473h22v1h-22zM229 474h26v1h-26zM297 474h25v1h-25zM233 475h36v1h-36zM284 475h33v1h-33zM237 476h77v1h-77zM242 477h68v1h-68zM248 478h57v1h-57zM259 479h36v1h-36z"/></svg>
