<svg width="512" height="512" version="1.1" xmlns="http://www.w3.org/2000/svg" viewBox="0 0 512 512"><path fill="#000000" d="M 258.5 38 L 265.5 38 L 275.5 41 L 330.5 74 L 390 119.5 L 397 132.5 L 398 153.5 L 398 155.5 L 398 268.5 Q 395.8 269.8 397 274.5 L 393 284.5 L 350 350 L 334.5 359 L 327.5 360 L 314.5 353 L 308 378.5 L 307 406.5 L 308 407.5 L 308 425.5 L 304.5 430 L 299.5 431 L 294 427.5 L 293 425.5 L 293 397.5 L 292 393.5 L 293 392.5 L 294 372.5 L 298 355.5 L 295 357.5 L 291 378.5 L 290 409.5 L 291 410.5 L 291 433.5 Q 289.5 439.5 280.5 438 L 276 432.5 L 275.5 408 L 275 440.5 L 271.5 445 L 264.5 446 L 260 441.5 L 260 398.5 L 259 397.5 L 258 385.5 L 255 376 L 251 377.5 L 256 393.5 L 257 407.5 L 258 408.5 L 258 447.5 L 253.5 454 Q 246.3 455.3 244 451.5 L 243 449.5 L 243 407.5 L 242 406.5 L 241 394.5 L 236.5 384 L 236 386.5 Q 238.5 388 237 393.5 L 234 401.5 L 231.5 404 L 220.5 409 L 210.5 409 L 126.5 367 L 91 336.5 L 87 329.5 L 85 319.5 L 85 180.5 L 90 164.5 L 136 94.5 L 141.5 89 Q 161.9 76.9 186.5 69 L 194.5 74 L 211 67 L 212 58.5 L 214.5 56 L 248.5 41 L 258.5 38 Z M 260 43 L 250 46 L 219 61 L 229 66 L 265 50 L 276 48 L 266 43 L 260 43 Z M 271 51 L 232 68 L 229 71 L 214 78 L 202 83 L 199 83 L 161 101 L 171 106 L 175 103 L 279 57 L 271 51 Z M 277 51 L 277 52 L 283 55 L 287 55 Q 284 50 277 51 Z M 290 58 L 291 60 L 320 77 L 323 76 L 298 60 L 290 58 Z M 283 59 L 175 108 L 208 127 L 313 79 Q 316 80 315 78 L 287 60 L 283 59 Z M 217 62 Q 214 67 218 69 L 225 68 L 217 62 Z M 214 70 L 202 76 L 201 78 L 216 72 Q 217 69 214 70 Z M 185 74 L 149 90 L 147 93 L 159 99 L 173 91 L 196 81 L 185 74 Z M 321 79 L 211 129 L 157 207 L 154 215 L 154 353 L 157 360 L 197 394 L 211 404 L 219 404 L 227 401 L 228 399 L 220 402 Q 211 402 208 397 L 167 362 L 162 354 L 162 295 L 161 294 Q 163 290 162 284 L 162 282 L 162 270 L 161 269 L 161 257 L 162 256 L 162 245 L 161 244 L 161 223 L 163 214 L 212 140 Q 218 132 229 128 L 319 88 L 326 86 L 336 89 L 383 125 Q 389 129 391 137 L 391 272 L 387 282 L 370 308 L 371 309 L 389 282 L 393 269 L 393 244 L 392 243 L 393 241 L 392 237 L 393 232 L 393 144 L 392 143 L 392 134 L 389 127 L 381 118 L 334 82 Q 330 78 321 79 Z M 324 89 L 221 135 L 214 142 L 168 210 L 164 221 L 164 349 L 167 359 L 216 399 L 220 399 L 230 395 L 231 393 L 226 395 Q 219 396 216 394 L 175 359 Q 169 356 168 349 L 168 222 L 177 204 L 219 141 L 237 132 L 323 94 L 331 94 L 381 132 Q 385 135 386 141 L 386 274 L 383 281 L 345 340 Q 341 345 333 347 L 334 349 L 342 345 L 349 337 L 379 290 L 388 272 L 388 137 L 386 133 L 338 94 L 332 90 L 324 89 Z M 144 94 L 105 151 L 96 165 L 91 176 L 100 181 L 104 182 L 106 176 L 113 165 L 156 101 L 144 94 Z M 323 97 L 225 141 L 218 148 L 195 182 L 175 212 L 171 221 L 171 350 L 173 354 L 220 393 L 224 393 L 231 390 L 231 359 L 233 352 L 238 347 L 261 336 L 285 326 L 324 307 L 331 306 L 335 312 L 335 343 L 340 341 L 344 337 L 376 287 L 383 274 L 384 269 L 384 229 L 383 228 L 383 219 L 384 218 L 383 193 L 383 191 L 383 180 L 384 179 L 383 140 L 382 138 L 376 131 L 335 100 Q 331 96 323 97 Z M 158 102 L 112 172 L 106 183 L 105 188 L 105 327 L 108 336 L 113 339 L 114 340 L 113 336 L 113 194 L 116 186 L 169 108 L 161 102 L 158 102 Z M 171 110 L 118 191 L 153 210 Q 177 168 206 131 L 206 128 L 199 125 L 178 112 L 171 110 Z M 90 179 L 90 322 L 92 329 L 95 331 L 104 335 L 102 328 L 102 187 L 103 186 Q 98 180 90 179 Z M 118 193 L 117 337 L 121 344 L 153 359 L 154 360 L 152 356 L 152 326 L 151 325 L 152 323 L 152 308 L 151 307 L 151 217 L 152 212 L 118 193 Z M 328 309 L 329 310 L 331 314 L 331 338 L 328 341 L 318 345 L 316 349 L 328 355 L 330 355 L 330 346 L 332 345 L 332 311 Q 331 308 328 309 Z M 370 309 L 366 314 L 367 315 L 370 311 L 370 309 Z M 323 311 L 239 350 L 237 353 L 325 313 Q 326 310 323 311 Z M 326 315 L 237 356 L 235 358 L 235 378 Q 283 359 327 336 L 327 329 L 325 334 L 319 339 Q 312 340 311 336 Q 310 328 313 325 L 319 320 L 325 321 L 326 325 L 327 325 L 327 316 L 326 315 Z M 366 315 L 361 322 L 362 323 L 366 317 L 366 315 Z M 361 323 L 359 326 L 361 325 L 361 323 Z M 316 324 L 313 330 L 314 333 L 318 326 Q 319 323 316 324 Z M 324 325 L 318 335 L 319 336 L 321 335 L 324 330 L 324 325 Z M 359 326 L 357 329 L 359 328 L 359 326 Z M 354 334 L 352 337 L 354 336 L 354 334 Z M 101 337 L 103 340 L 128 362 L 135 366 L 136 366 L 108 340 L 101 337 Z M 352 337 L 350 340 L 352 339 L 352 337 Z M 350 340 L 347 344 L 350 342 L 350 340 Z M 344 346 Q 340 351 334 352 L 333 354 Q 341 352 345 347 L 344 346 Z M 310 347 L 308 348 L 304 353 L 298 380 L 298 425 L 302 426 L 303 425 L 303 380 L 307 360 L 311 349 Q 312 346 310 347 Z M 132 352 L 133 354 L 163 380 L 191 394 L 192 394 L 159 365 L 132 352 Z M 291 356 L 287 358 L 284 362 L 282 372 L 281 390 L 280 391 L 280 405 L 281 406 L 280 410 Q 283 418 281 432 L 284 434 L 286 433 L 286 414 L 285 410 L 285 408 L 286 380 L 287 379 L 289 362 L 291 358 L 291 356 Z M 279 364 L 269 368 L 273 385 L 275 398 L 276 396 L 276 379 L 279 366 L 279 364 Z M 144 368 L 146 371 L 147 371 L 144 368 Z M 263 369 L 258 372 L 264 391 L 264 400 L 265 401 L 265 440 L 267 441 L 270 440 L 270 400 L 269 399 L 268 385 L 263 369 Z M 245 377 L 241 380 L 247 400 L 247 408 L 248 409 L 248 449 L 250 449 Q 251 452 253 448 L 253 408 L 249 386 L 246 380 Q 247 376 245 377 Z " /><path fill="#000000" d="M 330.5 126 Q 336.6 124.8 336 127.5 Q 338.2 128.8 337 133.5 L 332.5 138 L 329.5 138 Q 325.8 136.8 327 130.5 L 330.5 126 Z M 332 128 L 329 132 Q 328 135 331 136 L 333 135 L 335 132 Q 337 126 332 128 Z " /><path fill="#000000" d="M 306.5 134 L 309.5 134 L 316 138.5 Q 319 142.5 319 149.5 Q 317 162.5 308.5 169 L 300.5 173 L 295.5 173 L 288 167.5 Q 285 163.5 286 155.5 Q 288.5 145 295.5 139 L 306.5 134 Z M 304 137 L 300 139 Q 292 144 289 154 Q 287 166 294 170 Q 301 172 305 169 Q 313 164 316 154 Q 318 145 315 142 Q 313 136 304 137 Z " /><path fill="#000000" d="M 350.5 135 L 352 135.5 Q 350.3 138.8 345.5 139 L 346.5 137 L 350.5 135 Z " /><path fill="#000000" d="M 351.5 138 Q 356.9 136.1 356 139.5 L 356 141.5 Q 357.1 144.8 354.5 144 L 351.5 145 L 349.5 144 L 346 146.5 L 344.5 149 L 341.5 150 Q 339.3 149.3 340 145.5 L 342.5 142 L 351.5 138 Z M 355 139 L 344 144 Q 341 143 342 147 Q 346 148 345 146 L 350 142 L 352 143 L 355 142 L 355 139 Z " /><path fill="#000000" d="M 302.5 140 Q 311.5 138.5 313 144.5 L 314 153.5 Q 311.9 160.9 306.5 165 L 299.5 168 L 292 163.5 L 291 154.5 L 297.5 143 L 302.5 140 Z M 305 142 L 302 143 L 296 149 L 293 158 Q 293 163 298 165 Q 303 166 306 163 Q 311 159 312 151 L 311 146 Q 310 141 305 142 Z " /><path fill="#000000" d="M 331.5 143 Q 336.3 142.3 337 145.5 Q 338 152 334.5 154 L 328.5 155 Q 325.5 153.5 327 147.5 L 331.5 143 Z M 334 145 L 332 146 L 329 150 L 331 153 L 335 150 Q 336 146 334 145 Z " /><path fill="#000000" d="M 251.5 157 Q 262.3 155.2 265 161.5 Q 268.1 165.9 267 174.5 Q 264.7 184.2 258.5 190 L 250.5 195 L 242.5 195 L 237 190.5 Q 233.3 186.2 235 176.5 Q 237.4 166.4 244.5 161 L 251.5 157 Z M 253 159 L 246 163 Q 239 168 237 178 L 237 184 L 240 191 L 245 193 Q 251 194 254 191 Q 262 185 265 174 L 264 165 L 258 159 L 253 159 Z " /><path fill="#000000" d="M 252.5 162 L 260 164 Q 263.1 167.6 262 176.5 L 256.5 186 Q 253.5 190 246.5 190 L 241 186.5 Q 238.5 183 240 175.5 L 245.5 166 L 252.5 162 Z M 251 165 L 242 176 Q 240 185 246 187 L 253 186 Q 258 182 260 176 L 259 168 Q 258 164 251 165 Z " /><path fill="#000000" d="M 365.5 174 L 366 181 Q 371.9 180.1 374 184.5 L 375 192.5 L 369.5 201 L 366 203.5 L 366 210.5 L 363.5 211 L 351.5 216 L 349 218.5 L 348.5 225 L 348 209.5 L 349 209.5 L 349 215 L 351.5 215 L 364 208.5 Q 366.7 200.7 359.5 203 Q 354.5 200.5 356 191.5 Q 357.8 184.3 364 181.5 L 365 177 L 350 183.5 Q 350.8 188.3 348.5 190 L 348 175.5 L 349 175.5 Q 347.8 181.6 350.5 181 L 365.5 174 Z M 366 183 L 364 184 L 361 188 L 366 191 L 370 185 Q 371 181 366 183 Z M 372 185 L 367 193 L 372 195 L 373 193 Q 374 186 372 185 Z M 360 189 L 357 196 L 360 200 L 364 193 L 360 189 Z M 366 194 L 361 201 L 364 202 L 369 199 Q 372 200 370 196 L 366 194 Z " /><path fill="#000000" d="M 343.5 180 Q 346.5 181.5 345 187.5 L 343 188.5 Q 344.1 185.2 341.5 186 L 328 192 L 328 199 L 331 199 L 331 205.5 L 332.5 206 L 340 203 Q 340.1 197.4 344.5 195 L 349.5 194 Q 353.3 195.3 352 201.5 L 348.5 206 L 342.5 207 L 341 204 L 331 208.5 Q 332.7 215.3 329.5 217 L 328 217.5 L 328 224.5 L 329.5 224 L 343 217.5 Q 341.7 212.7 345 214 L 345 221.5 L 343.5 223 L 342.5 220 L 326 227 L 325.5 218 L 323 219 L 323 212 L 320.5 212 L 316 214 L 316 224.5 L 314.5 225 Q 313.7 221.3 308.5 222 Q 307.3 224.2 306 221.5 L 306 212.5 L 307.5 211 L 312 207.5 L 314.5 204 L 316 204 L 316 211.5 L 317.5 212 L 323 210 L 323 202.5 L 324.5 201 L 326 200.5 L 326 191.5 L 327.5 191 L 343 183.5 L 343.5 180 Z M 346 196 L 342 201 Q 341 205 345 206 L 348 205 Q 351 203 350 198 Q 349 195 346 196 Z M 329 201 L 325 204 L 326 217 L 329 215 L 329 201 Z M 314 208 Q 309 211 311 220 L 314 222 L 314 208 Z M 309 213 L 308 220 L 310 220 L 309 213 Z " /><path fill="#000000" d="M 220.5 183 Q 225.3 182.3 226 185.5 Q 227 192 223.5 194 L 217.5 195 L 215 190.5 L 217 185 L 220.5 183 Z M 222 185 L 218 189 Q 217 192 220 193 L 223 192 L 224 187 L 222 185 Z " /><path fill="#000000" d="M 319.5 258 L 321 262 L 318 260.5 L 319.5 258 Z " /><path fill="#000000" d="M 315.5 260 Q 318.1 259.3 317 262 L 302.5 268 L 302 266 L 315.5 260 Z " /><path fill="#000000" d="M 320.5 263 L 321 268 Q 317.7 269.3 319 264.5 L 320.5 263 Z " /><path fill="#000000" d="M 300.5 267 L 301 269 L 296 270.5 L 300 272 Q 301.1 274.7 298.5 274 L 296 273 Q 297.1 270.3 294.5 271 L 291 272 Q 288.9 277.2 293.5 276 Q 295.5 272 297.5 276 L 300 276.5 L 297.5 280 L 295.5 281 L 294 278.5 L 298 277.5 L 293.5 277 L 291 278 L 291 283.5 L 292.5 284 L 294 283.5 Q 294.8 285.8 292.5 285 L 289 286 L 290 279 L 252.5 296 L 245 298 L 244 320.5 L 245 321.5 L 245 332.5 L 243.5 341 L 243 298.5 L 261.5 289 L 289 278 L 289 272.5 L 290.5 272 L 300.5 267 Z " /><path fill="#000000" d="M 314.5 267 L 315 293 Q 318 292 317 295 L 315 295.5 L 315 302.5 Q 317.8 303.3 317 307.5 Q 315.8 310 312 309 Q 311 304.8 314 303.5 L 314 296 L 308.5 298 L 308 279 L 297 283 L 297 288.5 L 295.5 289 L 292 291.5 Q 292.8 297.7 297 300.5 L 297 316.5 L 295 315.5 L 295 300.5 L 292.5 297 L 280 303.5 L 280 324.5 L 278 325 L 278 302.5 L 279.5 301 L 291 295.5 L 289.5 292 L 284 294 L 284 289 L 282.5 289 L 281 293 L 268 298 Q 269.1 295.3 266.5 296 L 262 298.5 L 261.5 333 L 260 324.5 L 261 320.5 L 260 319.5 L 260 300.5 L 262.5 296 L 268 292.5 Q 267.3 290.3 269.5 291 L 278.5 286 L 281 286 L 281.5 288 L 284.5 286 Q 287.1 287.4 286.5 292 L 295 288 L 295 282 L 297.5 282 L 309 277 L 309.5 296 L 314 294 L 313.5 269 L 304.5 274 L 301.5 274 L 302.5 272 L 314.5 267 Z M 279 288 L 269 292 L 270 296 L 280 291 Q 281 287 279 288 Z " /><path fill="#000000" d="M 320.5 269 L 321 275 Q 317.7 276.3 319 271.5 L 320.5 269 Z " /><path fill="#000000" d="M 319 276 L 321 276 L 321 281 L 319 281 L 319 276 Z " /><path fill="#000000" d="M 319 282 L 321 282 L 321 287 L 319 287 L 319 282 Z " /><path fill="#000000" d="M 320.5 288 L 321 293 L 318.5 294 L 318 292.5 L 320.5 288 Z " /><path fill="#000000" d="M 301.5 328 Q 307.3 327.3 308 331.5 L 308 339.5 L 301.5 347 Q 294.5 348.5 293 344.5 L 292 339.5 L 297.5 330 L 301.5 328 Z M 300 332 L 295 338 L 296 341 L 300 334 L 300 332 Z M 306 333 L 299 344 L 300 345 L 302 344 L 306 338 L 306 333 Z " /><path fill="#000000" d="M 281.5 337 Q 288.5 335.5 290 339.5 L 290 346.5 L 283.5 355 L 279.5 356 L 276 355 L 274 351.5 L 274 346.5 L 278.5 339 L 281.5 337 Z M 282 340 Q 277 343 276 349 L 277 350 L 282 342 L 282 340 Z M 288 341 L 281 352 Q 280 354 283 353 Q 287 350 288 345 L 288 341 Z " /><path fill="#000000" d="M 264.5 345 Q 269.6 344.4 271 347.5 L 272 354.5 L 267.5 362 Q 265.5 365 259.5 364 L 257 363 Q 255.1 360.3 256 353.5 L 262.5 346 L 264.5 345 Z M 264 348 L 258 356 L 259 358 L 264 350 L 264 348 Z M 269 350 L 263 360 Q 262 362 265 361 L 269 356 L 269 350 Z " /><path fill="#000000" d="M 245.5 354 L 252 355 Q 253.9 357.7 253 364.5 L 248.5 371 L 241.5 373 Q 237.1 370.9 237 364.5 Q 238.5 358 243.5 355 L 245.5 354 Z M 245 357 L 240 363 L 241 366 L 245 359 L 245 357 Z M 251 359 L 244 370 L 246 370 L 251 363 L 251 359 Z " /></svg>