<svg width="512" height="512" version="1.1" xmlns="http://www.w3.org/2000/svg" viewBox="0 0 512 512"><path fill="#000000" d="M 371.5 25 L 377.5 25 L 388.5 30 L 402.5 38 L 409 44.5 Q 413.5 51 412 63.5 L 411 64.5 L 411 76.5 L 412 77.5 L 412 89.5 L 411 90.5 L 411 101.5 L 412 102.5 L 412 115.5 L 411 116.5 L 411 127.5 L 412 128.5 L 412 140.5 L 411 141.5 L 411 152.5 L 412 153.5 L 412 166.5 L 411 167.5 L 411 178.5 L 412 179.5 L 412 191.5 L 411 192.5 L 411 203.5 L 412 204.5 L 412 217.5 L 411 218.5 L 411 229.5 L 412 230.5 L 412 243.5 L 411 244.5 L 411 255.5 L 412 256.5 L 412 268.5 L 411 269.5 L 411 280.5 L 412 281.5 L 412 294.5 L 411 295.5 L 411 306.5 L 412 307.5 L 412 320.5 L 411 321.5 L 411 331.5 L 412 332.5 L 412 342.5 L 410 350.5 L 406 358 L 392.5 366 L 310.5 405 L 188.5 466 L 157.5 481 L 152.5 483 L 147.5 483 L 126.5 473 L 115 463.5 L 113 455.5 L 113 359.5 Q 104 353.5 100 342.5 L 100 287.5 L 101 285 L 106 283 L 106 263.5 L 104.5 262 L 101 259.5 L 100 257.5 L 100 211.5 L 113 181.5 L 113 162.5 L 114 158.5 L 121.5 149 L 371.5 25 Z M 373 31 L 126 154 Q 121 158 119 165 L 119 306 L 120 307 L 119 308 L 119 346 L 119 348 L 120 359 L 120 361 Q 122 367 119 369 L 120 372 L 120 459 L 121 461 L 127 465 L 126 461 L 126 449 L 127 448 L 127 436 L 126 435 L 126 423 L 127 422 L 127 410 L 126 409 L 126 398 L 127 397 L 127 385 L 126 384 L 126 372 L 127 371 L 127 359 L 126 358 L 126 347 L 127 346 L 127 334 L 126 333 L 126 321 L 127 320 L 127 308 L 126 307 L 126 296 L 127 295 L 127 282 L 126 281 L 126 270 L 127 269 L 127 257 L 126 256 L 126 244 L 127 243 L 127 231 L 126 230 L 126 219 L 127 218 L 127 206 L 126 205 L 127 172 L 130 165 L 138 157 L 381 36 Q 383 37 382 34 L 376 31 L 373 31 Z M 387 38 L 140 161 Q 133 165 131 175 L 131 468 L 141 473 L 141 182 L 145 171 L 153 164 L 395 44 Q 398 45 397 42 L 387 38 Z M 400 47 L 155 168 Q 148 172 146 180 L 146 474 L 149 476 L 154 476 L 401 354 L 405 346 L 405 51 L 404 49 Q 403 46 400 47 Z M 115 194 L 106 214 Q 109 218 115 218 L 115 194 Z M 106 219 L 106 256 L 111 258 L 113 262 L 113 294 L 112 295 L 106 293 L 106 341 Q 109 348 115 352 L 115 224 L 106 219 Z " /><path fill="#000000" d="M 355.5 116 Q 362.8 115.8 365 120.5 L 366 126.5 L 369 130.5 L 369 145.5 L 370 146.5 L 370 159.5 L 371 160.5 L 371 181.5 L 372 182.5 L 372 194.5 L 373 195.5 L 373 213.5 L 374 214.5 L 376 261.5 L 377 262.5 L 377 276.5 L 378 277.5 L 378 294.5 L 379 295.5 L 379 312.5 L 372.5 322 L 216.5 398 L 208.5 398 L 203.5 397 Q 201.2 400.2 194.5 399 L 190 395.5 L 188 390.5 L 188 207.5 Q 189.8 198.3 196.5 194 L 355.5 116 Z M 352 123 L 278 160 L 282 162 L 285 162 L 357 126 L 352 123 Z M 361 129 L 286 167 L 287 200 L 288 201 L 288 214 L 289 215 L 289 231 L 290 232 L 290 251 L 291 252 L 291 268 L 291 270 L 292 271 L 292 285 L 293 286 L 293 305 L 294 306 L 294 320 L 295 321 L 296 353 L 299 353 L 370 318 Q 374 315 375 310 L 374 307 L 374 291 L 373 290 L 373 276 L 372 275 L 372 257 L 371 256 L 370 222 L 369 221 L 369 208 L 368 207 L 368 193 L 367 192 L 367 174 L 366 173 L 364 132 L 361 129 Z M 272 162 L 198 199 L 193 206 L 193 386 L 194 388 L 198 390 L 206 392 L 203 326 L 202 325 L 202 308 L 201 307 L 201 288 L 200 287 L 200 275 L 199 274 L 199 257 L 198 256 L 198 237 L 197 236 L 197 222 L 196 221 Q 195 210 199 206 L 203 202 L 278 165 L 272 162 Z M 280 169 L 205 206 L 201 211 L 202 243 L 203 244 L 203 264 L 204 265 L 204 280 L 205 281 L 205 297 L 206 298 L 206 312 L 207 313 L 207 332 L 208 333 L 208 350 L 209 351 L 210 384 L 211 385 L 211 393 L 214 394 L 292 356 L 292 349 L 291 348 L 291 331 L 290 330 L 290 315 L 289 314 L 288 279 L 287 278 L 287 265 L 286 264 L 286 245 L 285 244 L 284 211 L 283 210 L 282 176 L 281 175 Q 282 168 280 169 Z M 196 394 L 196 395 L 198 395 L 196 394 Z " /></svg>