<svg width="512" height="512" version="1.1" xmlns="http://www.w3.org/2000/svg" viewBox="0 0 512 512"><path fill="#000000" d="M 271.5 23 L 309.5 23 Q 311.3 25.8 317.5 24 L 334.5 28 L 348.5 33 Q 389.8 51.2 417 83.5 Q 448.9 119.6 465 171.5 L 472 200.5 L 474 219.5 L 475 220.5 L 475 228.5 L 476 229.5 L 476 271.5 L 475 272.5 L 473 294.5 L 467 321.5 L 454 357.5 Q 434.8 399.8 403.5 430 Q 380.2 453.2 348.5 468 L 318.5 478 L 307.5 479 L 306.5 480 L 297.5 480 L 296.5 481 L 283.5 481 L 282.5 480 L 268.5 480 L 267.5 479 L 251.5 479 L 250.5 478 L 235.5 478 L 234.5 477 L 190.5 475 L 165.5 470 Q 143 463.5 125.5 452 Q 103.2 437.8 86 418.5 Q 58.3 388.2 42 346.5 L 30 304.5 L 28 286.5 L 27 285.5 L 27 277.5 L 26 276.5 L 26 256.5 L 25 251.5 L 26 250.5 L 27 222.5 L 32 194.5 L 46 151.5 Q 67.2 102.2 104.5 69 Q 131.9 43.9 172.5 32 L 200.5 27 L 270.5 24 L 271.5 23 Z M 281 25 L 260 29 L 240 36 Q 216 46 199 62 Q 165 91 146 134 L 135 162 L 128 188 L 124 209 L 123 224 L 122 225 L 122 239 L 121 240 L 121 268 L 122 269 L 122 282 L 123 283 L 124 298 L 129 324 L 137 351 Q 154 398 185 431 Q 206 453 236 467 L 263 476 L 274 477 L 275 478 L 286 478 L 287 479 L 306 478 L 307 477 L 318 476 L 346 467 Q 377 453 401 430 Q 438 395 458 342 L 458 339 Q 440 382 410 413 Q 385 438 351 454 L 330 461 L 314 464 L 302 464 L 301 465 L 278 463 L 256 457 Q 231 447 213 431 Q 181 403 163 363 Q 154 341 148 317 L 144 295 L 143 278 L 142 277 L 142 230 L 143 229 L 143 219 L 145 211 L 145 205 L 150 181 L 159 153 L 173 123 L 195 91 Q 212 70 236 56 L 259 45 L 276 40 L 287 39 L 288 38 L 319 38 L 339 42 L 354 47 Q 382 59 404 79 Q 435 108 453 150 L 454 150 L 452 143 L 442 123 Q 431 102 416 86 Q 390 55 353 37 L 331 29 L 317 26 Q 310 28 309 25 L 281 25 Z M 255 26 L 254 27 L 236 27 L 235 28 L 218 28 L 217 29 L 198 30 L 166 39 Q 135 52 114 73 Q 81 104 62 148 L 50 181 L 46 197 L 42 219 L 41 239 L 40 240 L 40 267 L 41 268 L 41 280 L 42 281 L 43 296 L 49 324 L 56 346 Q 72 389 100 420 Q 125 449 164 465 L 179 470 L 194 473 L 236 475 L 237 476 L 253 476 L 254 477 L 257 477 L 245 473 L 227 465 Q 206 454 190 438 Q 156 406 138 360 L 132 343 L 125 316 L 122 293 L 121 292 L 121 284 L 120 283 L 120 271 L 119 270 L 119 237 L 120 236 L 121 215 L 125 196 L 125 191 L 133 161 L 150 121 Q 162 99 177 81 Q 195 59 220 44 L 244 32 L 262 27 L 255 26 Z M 158 39 Q 128 51 107 70 Q 73 100 52 144 Q 42 164 36 188 L 32 205 L 30 223 L 29 224 L 29 233 L 28 234 L 28 275 L 29 276 L 29 285 L 30 286 L 33 309 L 40 335 Q 57 383 88 418 Q 114 447 154 464 L 156 464 L 141 456 L 112 434 Q 80 405 61 364 L 53 344 L 45 317 L 41 297 L 40 283 L 39 282 L 39 270 L 38 269 L 38 239 L 39 238 L 40 218 L 47 184 L 54 162 Q 71 116 101 83 Q 125 55 160 40 L 158 39 Z M 289 40 L 269 44 L 252 50 Q 231 59 216 73 Q 184 100 166 142 L 157 165 L 151 186 L 146 213 L 145 230 L 144 231 L 144 275 L 145 276 L 145 286 L 146 287 L 148 306 L 154 332 Q 168 380 198 414 Q 217 436 245 450 L 266 458 L 286 462 L 313 462 Q 314 460 320 461 L 348 453 Q 380 439 404 416 Q 436 385 455 341 L 467 304 L 471 282 L 472 260 L 473 259 L 472 229 L 471 228 L 471 220 L 469 213 L 469 208 L 465 189 L 457 164 Q 442 123 415 94 Q 391 66 356 50 L 339 44 L 325 41 Q 318 43 317 40 L 289 40 Z M 455 150 L 454 153 L 457 160 L 458 160 L 455 150 Z M 459 160 L 458 163 L 459 163 L 459 160 Z M 460 163 L 459 166 L 460 166 L 460 163 Z M 462 328 L 461 331 L 462 331 L 462 328 Z M 461 331 L 460 334 L 461 334 L 461 331 Z M 460 334 L 458 337 L 459 339 L 460 337 L 460 334 Z " /><path fill="#000000" d="M 301.5 66 L 330.5 67 L 357.5 75 Q 390.5 90 412 116.5 Q 438.1 147.4 451 191.5 L 458 226.5 L 458 236.5 L 459 237.5 L 459 267.5 L 458 268.5 L 458 277.5 L 457 278.5 L 455 295.5 Q 450.3 317.3 442 335.5 Q 424.8 374.3 395.5 401 Q 376 419.5 348.5 430 L 325.5 436 L 301.5 437 L 279.5 433 Q 265 429 253.5 422 Q 235 411 221 395.5 Q 194.6 366.4 182 323.5 L 177 302.5 L 175 282.5 L 174 281.5 L 173 238.5 L 174 237.5 L 175 217.5 L 179 195.5 L 191 158.5 Q 206.2 121.7 233.5 97 Q 248.9 82.9 269.5 74 L 284.5 69 L 301.5 66 Z M 303 68 L 282 72 L 266 78 Q 249 86 236 98 Q 207 123 192 162 L 185 182 L 180 202 L 178 219 L 177 220 L 177 227 L 176 228 L 176 240 L 175 241 L 176 280 L 177 281 L 177 289 L 180 302 L 180 307 L 184 323 Q 197 365 223 395 Q 236 409 253 419 L 277 430 L 288 433 L 303 434 L 304 435 L 316 435 L 317 434 L 331 433 L 351 427 Q 376 416 395 399 Q 424 372 441 333 L 449 311 L 453 295 L 455 278 L 456 277 L 456 268 L 457 267 L 456 228 L 448 189 Q 435 147 410 118 Q 390 94 362 79 L 336 70 L 323 69 L 322 68 L 303 68 Z " /><path fill="#000000" d="M 270.5 146 L 273 147.5 L 274 149.5 L 260 162.5 Q 240.3 184.8 231 217.5 L 227 239.5 L 227 271.5 L 232 296.5 Q 237 313 245 326.5 Q 255.3 344.2 270.5 357 L 275 360.5 L 274 365 L 271.5 365 L 266.5 361 L 252 346.5 Q 236.6 327.9 228 302.5 L 222 274.5 L 221 247.5 L 222 246.5 L 222 236.5 L 225 219.5 L 232 197.5 Q 242.5 172 260.5 154 L 270.5 146 Z " /><path fill="#000000" d="M 371 149 Q 379.9 152 385 160.5 Q 402.7 181.3 412 210.5 L 416 226.5 L 417 240.5 L 418 241.5 L 418 270.5 L 413 297.5 L 406 317.5 Q 395.1 342.1 376.5 359 L 373.5 361 Q 370.5 360.5 371 356.5 Q 392.6 337.1 404 307.5 L 411 281.5 L 412 265.5 L 413 264.5 L 413 247.5 L 412 246.5 L 412 236.5 L 411 235.5 L 410 224.5 L 401 196.5 Q 389.3 170.2 369 152.5 L 371 149 Z " /><path fill="#000000" d="M 317.5 174 L 330.5 174 L 343.5 178 Q 355.6 184.4 364 194.5 Q 383.6 217.4 384 259.5 L 383 260.5 L 382 275.5 L 377 292.5 Q 368.8 313.3 352.5 326 L 338.5 334 L 331.5 336 L 314.5 336 Q 293.9 331.1 283 316.5 Q 271.4 303.1 266 283.5 L 264 273.5 L 264 266.5 L 263 265.5 L 263 246.5 L 264 245.5 L 265 233.5 L 271 214.5 Q 278.1 198.1 290.5 187 Q 300.6 177.1 317.5 174 Z M 319 176 Q 302 179 292 189 Q 279 200 272 218 L 267 235 L 266 247 L 265 248 L 265 266 L 268 283 Q 273 302 285 316 Q 296 329 316 334 Q 327 336 335 333 L 351 325 Q 365 314 373 297 L 379 280 L 381 269 L 381 259 L 382 258 L 381 242 L 378 227 Q 373 208 362 196 Q 354 185 341 179 L 330 176 L 319 176 Z " /><path fill="#000000" d="M 318.5 187 L 329.5 187 L 337.5 189 Q 351 194.5 359 205.5 Q 369.1 218.4 373 237.5 Q 371.5 243 374 244.5 L 374 266.5 L 370 283.5 L 364 296.5 L 350.5 313 L 334.5 322 Q 327.4 324.4 316.5 323 Q 300.1 318.9 291 307.5 Q 281.6 296.9 277 281.5 L 274 267.5 L 274 244.5 L 277 230.5 L 281 219.5 Q 286.8 206.8 296.5 198 Q 304.8 189.8 318.5 187 Z M 320 189 Q 307 192 299 199 Q 288 209 282 223 L 276 246 L 276 268 L 278 278 Q 283 295 293 307 Q 302 317 318 321 L 334 320 L 349 312 L 361 298 L 367 286 L 372 266 L 372 246 L 371 245 L 370 234 Q 366 218 357 207 Q 350 197 340 192 L 329 189 L 320 189 Z " /><path fill="#000000" d="M 303.5 218 L 304 227.5 L 302 226.5 Q 300.3 219.8 303.5 218 Z " /><path fill="#000000" d="M 344 219 Q 348.6 217.8 350 220.5 L 350 225 Q 347 224 348 227 L 351 227 Q 349.7 231.1 353 230 L 353 234.5 L 353.5 236 L 348 236 L 348 230 Q 351 231 350 228 L 344 228 L 344 230 L 346 230 L 346 236 L 340 235.5 L 341.5 233 L 345 234 Q 346.7 229.9 342.5 231 L 341 231.5 Q 340.3 228.9 343 230 L 343 227 L 346 227 L 346 225 L 344 225 L 344 219 Z M 345 220 Q 343 225 349 223 Q 351 218 345 220 Z M 349 231 Q 348 236 352 234 Q 354 230 349 231 Z " /><path fill="#000000" d="M 306.5 221 Q 310.7 223.3 310 230.5 L 306.5 236 L 302.5 237 L 298 233.5 L 297 225.5 L 299.5 222 L 301 222.5 Q 297.3 224.3 299 231.5 Q 299.5 235.5 304.5 235 Q 309.5 233.5 308 225.5 Q 304.9 224.4 306.5 221 Z " /><path fill="#000000" d="M 323.5 248 Q 330 247 332 250.5 Q 334.6 253.4 334 259.5 L 328.5 267 Q 321.6 267.9 320 263.5 L 318 256.5 Q 319.3 250.8 323.5 248 Z M 325 249 L 320 255 L 321 263 Q 322 266 329 265 L 332 261 L 331 252 Q 330 248 325 249 Z " /><path fill="#000000" d="M 342.5 275 L 342 276.5 L 341 283.5 L 343 286.5 L 341 287 L 340 278.5 L 342.5 275 Z " /><path fill="#000000" d="M 351.5 275 Q 354.7 277.3 354 283.5 L 351.5 287 L 352 285.5 L 353 279.5 L 351.5 275 Z " /><path fill="#000000" d="M 349.5 277 Q 352.3 278.3 351 283.5 L 349 284.5 L 350 279.5 L 349.5 277 Z " /><path fill="#000000" d="M 297 278 L 311.5 278 L 312 280.5 L 313 285.5 L 312 289 L 298.5 290 L 297 288.5 L 297 278 Z M 298 280 L 298 287 L 300 288 L 301 287 L 310 287 L 310 280 L 298 280 Z " /><path fill="#000000" d="M 343.5 278 L 344 283.5 L 343 283.5 L 342 280.5 L 343.5 278 Z " /><path fill="#000000" d="M 346.5 279 Q 349.5 278.1 348 282.5 L 346.5 291 L 345 280.5 L 346.5 279 Z " /></svg>